<svg xmlns="http://www.w3.org/2000/svg" xmlns:xlink="http://www.w3.org/1999/xlink" width="326.272" height="47.027" viewBox="0 0 326.272 47.027"><defs><style>.a{fill:#1d1d1b;}.b{fill:url(#a);}.c{fill:#002a55;}.d{fill:#ffda00;}</style><linearGradient id="a" x1="0.328" y1="0.04" x2="0.609" y2="0.892" gradientUnits="objectBoundingBox"><stop offset="0" stop-color="#ffda00"/><stop offset="1" stop-color="#e9a700"/></linearGradient></defs><g transform="translate(-420.593 -43.919)"><path class="a" d="M657.534,90.714a4.472,4.472,0,0,1-.928-5.972c.1-.2.4-.715.086-.78-.23-.049-.51.392-.635.529a5.913,5.913,0,0,0-.548.59,6.164,6.164,0,0,0-.379.886c-.132.3-.233.628-.38.886a2.625,2.625,0,0,1-1.88,1.119c-2.4.255-2.227-2.5-2.975-4.01-.381.141-.228.685-.19,1.119a4.793,4.793,0,0,1,.021,1.328,4.835,4.835,0,0,0-1.456,1.54c-.144.3-.132.734-.527.845,0-3.082,1.153-4.953,3.06-6.121.631-.384,1.338-.647,2.047-.994,0-.113-.084-.151-.126-.228-1.2.011-3.057.491-2.766-1.141.068-.381.228-.779.315-1.2.04-.187.122-.385.15-.553.017-.1.148-.258.127-.38-.019-.1-.124-.133-.277-.122-.685.89-.617,1.982-.82,2.1-1.166.194-1.658,1.346-2.661,1.635.262-2.443,1.8-3.606,3.863-4.245A2.508,2.508,0,0,1,653.06,75.9a4.732,4.732,0,0,1,2.787,1.248c.386.3.888.882,1.6.612a2.967,2.967,0,0,0,1.267-1.267c.336-.547.723-1.091,1.035-1.5.751-.993,1.32-2.016,2-3.039a14.6,14.6,0,0,1,3.61-3.972,3.458,3.458,0,0,1,2.3-.715,6.143,6.143,0,0,1,1.783.46c.4.167,1.052.347,1.193.658.216.479-.172,1.534-.3,1.9-.206.608-.414,1.114-.613,1.643-1.156,3.066-1.2,6.962-3.082,9.415-.137.179-.452.529-.59.529-.167,0-.365-.342-.464-.445a1.759,1.759,0,0,0-1.013-.529,1.65,1.65,0,0,0-1.31.088c-1.007.54-1.323,1.779-1.5,3.164-.17,1.346-.3,2.8-1.162,3.5a2.068,2.068,0,0,1-2.257.172,2.962,2.962,0,0,1-.824-.822c-.2-.289-.371-.671-.865-.761a4.811,4.811,0,0,0,.844,1.837c.11.16.353.382.38.507s-.048.448-.041.654c.016.631.24,1.152.274,1.708A1.075,1.075,0,0,1,657.534,90.714Zm-39.3-1.434a5.481,5.481,0,0,1-.465-1.815,4.082,4.082,0,0,1,.822-2.616c.126-.213.411-.579.3-.719-.1-.122-.172-.034-.337.084a6.089,6.089,0,0,0-.887.867,2.146,2.146,0,0,1-1.477.863c-.566.016-1.495-.346-1.666-.8-.119-.312-.058-.6-.148-.845a5.371,5.371,0,0,0-.318-.673,2.416,2.416,0,0,0-.929-1.057,1.976,1.976,0,0,0,.317,1.122,2.848,2.848,0,0,1,.4,1.094c0,.145-.26.355-.38.507a4.938,4.938,0,0,0-.8,1.5c-.032.084-.063.232-.169.274-.245-.168-.216-.529-.253-.8a6.972,6.972,0,0,1,.864-4.283c.259-.48.458-1.148.908-1.35a8.536,8.536,0,0,1,.845-.255c.528-.172,1.055-.354,1.645-.548.231-.076.749-.126.718-.316-.038-.232-.646-.205-.887-.232a3.635,3.635,0,0,1-.908-.19c-1.409-.578-.17-2.225-.211-3.333a.952.952,0,0,0-.229-.608c-.376.323-.3.78-.383,1.2a2.294,2.294,0,0,1-.381,1.1,4.65,4.65,0,0,1-.719.38,5.456,5.456,0,0,0-.716.382c-.369.273-.425.718-.906.821a2.554,2.554,0,0,1,.274-1.073,4.52,4.52,0,0,1,1.057-2.05c.406-.331,1.121-.708,1.525-1.073a4.419,4.419,0,0,1,1.534-.974,2.868,2.868,0,0,1,2.067-.125c1.035.491,1.351,1.958,2.092,2.891a2.323,2.323,0,0,0,1.581.909,8.413,8.413,0,0,0,2.322-.087,10.655,10.655,0,0,0,2.027-.464,5.231,5.231,0,0,1,1.836-.633,10.237,10.237,0,0,1,1.288.149,40.806,40.806,0,0,0,9.455.1c1.237-.152,2.412-.414,3.694-.612a5.736,5.736,0,0,0,3.862-1.857,4.344,4.344,0,0,1,.7-.719l.044-.019a11.427,11.427,0,0,0,1.6-.715,6.666,6.666,0,0,0,1.711-2.028,16.245,16.245,0,0,0,1.223-2.492,22.755,22.755,0,0,0,.764-2.876,15.64,15.64,0,0,0,.312-1.643c.086-.765.172-1.536.253-2.236a174.338,174.338,0,0,0,21.55.613c.585-.027,1.183-.012,1.774,0,1.7.034,3.609.022,5.467.083a16.14,16.14,0,0,0,1.75-.034,10.5,10.5,0,0,0,1.649-.239,24.267,24.267,0,0,0,2.912-.8c1.615-.582,3.735-1.644,3.081-4.071a4.443,4.443,0,0,0-4.178-3.23c-2.389-.27-4.273.593-6.143,1.183-1.913.6-3.775,1.187-5.656,1.769-1.852.579-3.687,1.247-5.635,1.777a12.635,12.635,0,0,1-3.335.377,16.171,16.171,0,0,1-3.291-.419,10.277,10.277,0,0,1-2.767-.951,5.021,5.021,0,0,1-1.836-1.859,6.023,6.023,0,0,1-.993-2.72c-.228-2.411,1.257-3.683,2.892-4.454,2.482-1.173,6.315-1.347,9.688-.864a9.4,9.4,0,0,0,1.773,0,8.909,8.909,0,0,0,4.474-1.165c.049.008.093-.1.161-.113a2.782,2.782,0,0,1-.241,1.214,8.791,8.791,0,0,1-4.605,4.936,6.021,6.021,0,0,1-2.132.613,9.208,9.208,0,0,1-2.384-.335c-1.107-.221-2.256-.457-3.418-.7a2.886,2.886,0,0,0-1.353-.149,5.153,5.153,0,0,0-1.583.8,2.286,2.286,0,0,0-.906,1.457,2.792,2.792,0,0,0,1.688,2.956,7.8,7.8,0,0,0,4.03.654,14.309,14.309,0,0,0,3.905-.821c2.26-.8,4.432-1.922,6.713-2.767,1.7-.635,3.564-1.164,5.339-1.752a9.825,9.825,0,0,1,1.9-.465,10.752,10.752,0,0,1,4.221.4,5.974,5.974,0,0,1,3.019,1.708,7.049,7.049,0,0,1,1.687,3.038,4.351,4.351,0,0,1-.654,3.736,6.917,6.917,0,0,1-2.616,2.111,10.738,10.738,0,0,1-3.632,1.1,18.156,18.156,0,0,1-4.474-.125c-1.391-.194-2.514-.556-4.052-.674a4.395,4.395,0,0,1,2.174,2.024c.383,1.035.454,2.389,1.16,3.062a1.939,1.939,0,0,0,1.647.442,3.041,3.041,0,0,0,1.392-.715,5.926,5.926,0,0,0,1.584-2.642,4.226,4.226,0,0,1,2.68,1.815,16.945,16.945,0,0,1,3.378,5.615,8.736,8.736,0,0,1,.928,3.545,3.392,3.392,0,0,0-2.574.738,2.505,2.505,0,0,0-.656,2.45c.525,1.312,2.484,1.993,2.154,4.032a2.613,2.613,0,0,1-.634,1.457,2.7,2.7,0,0,1-1.668.571c-.749.03-1.135-.377-1.772-.468a.994.994,0,0,0,.381.468c.122.1.426.255.464.422a2.244,2.244,0,0,1-.127.738,2.54,2.54,0,0,0-.041,1.1c.115.441.437.634.233,1.076-.242.031-.409-.179-.55-.316-.917-.9-1.106-2.655-1.351-4.283-.04-.263-.064-.514-.379-.552-.122,1.754-.4,3.306-1.48,4.055a1.87,1.87,0,0,1-2.088-.13c-.53-.41-.842-1.027-1.542-1.225.071.685.98.773,1.161,1.4a3.236,3.236,0,0,1-.105,1.328c-.072.441-.131.859-.189,1.289-.234-.022-.393-.239-.528-.422a5.576,5.576,0,0,1-.845-2.005,12.259,12.259,0,0,1,.107-1.624c-.018-.685-.474-1.175-.169-1.818a6.144,6.144,0,0,1,1.582-1.643c.174-.164.4-.319.464-.552-.282-.152-.574.126-.823.3-.6.414-1.795,1.453-2.7.905a1.763,1.763,0,0,1-.718-1.012,5.619,5.619,0,0,1,.19-1.559c.074-.487.155-1.165-.359-1.29.038,1.746-1.3,2.153-1.836,3.4-.042.1-.055.517-.275.422-.123-.049-.076-.057-.065-.19a4.143,4.143,0,0,1,.192-.632,6.323,6.323,0,0,1,.929-2.363c.351-.433.914-.711,1.244-1.1.4-.472.451-1.286,1.246-1.37a2.611,2.611,0,0,1,1.224.229c.973.4,1.479,1.59,2.975,1.27.682-1.08,1.428-2.814.7-4.352-.239-.5-.544-1.126-1.224-1.138a2.1,2.1,0,0,0-1.224.526c-.362.266-.681.525-.993.76a16.478,16.478,0,0,1-2.174,1.331,25.652,25.652,0,0,1-2.364,1.139,6.417,6.417,0,0,1-2.85.653,2.471,2.471,0,0,1-2.152-1.351,6.16,6.16,0,0,1-.252-3.081,21.262,21.262,0,0,1,.97-4.283,2.842,2.842,0,0,0,.275-1.5c-.119-.445-.932-.757-1.352-.909a11.513,11.513,0,0,0-5.929-.38,10.426,10.426,0,0,0-3,1.521c-.94.62-1.851,1.233-2.679,1.838-1.726,1.258-3.438,2.6-5.319,3.713a31.776,31.776,0,0,1-4.6,2.176,2.7,2.7,0,0,1-1.771.335c-.018-.16.164-.228.252-.316a8.627,8.627,0,0,0,1.2-1.582,1.778,1.778,0,0,0,.317-.761c-.241-.118-.461.144-.59.277-.481.487-.83,1.134-1.288,1.667-.309.362-.625.692-.907,1.058a7.065,7.065,0,0,0-.718,1.244,33.539,33.539,0,0,1-2.279,3.606,3.778,3.778,0,0,1-.907,1.058c-.8.46-2.34.229-3.315.042a14.657,14.657,0,0,0-1.667-.232,12.646,12.646,0,0,0-1.773.083c-.588.042-1.154.157-1.709.211a5.924,5.924,0,0,0-2.955.844c-.367.266-.722.535-1.12.784-.785-.671-1.177-1.427-2.342-1.606a3.46,3.46,0,0,0-3.716,2.07,5.069,5.069,0,0,0-.105.886c-.151,1.305-.8,2.655-1.9,3a1.374,1.374,0,0,1-.55.019c-1.05-.232-1.047-1.811-2.469-1.583.008.133.157.213.254.3a11.11,11.11,0,0,1,.949.821,5.255,5.255,0,0,1-.42,2.283A2.569,2.569,0,0,1,618.235,89.28Zm14.2-13.128c-.113-.027-.332-.068-.36-.148-.055-.16.283-.419.36-.506.923-1.039,1.186-2.872,1.055-4.748-.039-.559-.018-1.072-.085-1.586-.068-.529-.092-1.05-.126-1.56a26,26,0,0,0-.464-2.914c-.342-1.913-.621-3.956-.845-5.953a10.376,10.376,0,0,1-.085-1.624,9.834,9.834,0,0,1,.233-1.457,8.265,8.265,0,0,1,.338-1.351c.073-.19.14-.437.211-.635.093-.247.17-.335-.063-.525-.276.065-.319.381-.421.59s-.231.448-.318.677a6.89,6.89,0,0,0-.274,1.731,28.527,28.527,0,0,0,.021,3.8c.06,1.267.176,2.5.318,3.69.219,1.845.649,3.333.738,5.257.089,1.85.188,4.106-.379,5.489a2.2,2.2,0,0,1-2.47,1.435,4.678,4.678,0,0,1-2.6-.909c-.13-.1-.234-.141-.168-.275.056-.113.413-.158.506-.209,1.351-.738,1.28-3.629,1.2-5.721-.04-1.081-.158-2.169-.231-3.249a36.634,36.634,0,0,1-.189-6.584,37.846,37.846,0,0,1,1.349-5.6,3.86,3.86,0,0,1,1.183-2.279c.722.27,1.785,1.138,2.744.506a1.008,1.008,0,0,0-.527-.316,6.753,6.753,0,0,1-1.858-.654,3.937,3.937,0,0,1-1.35-2.005,3.749,3.749,0,0,1,.4-2.7,2.411,2.411,0,0,1,2.047-1.391,4.105,4.105,0,0,1,2.576.757,1.541,1.541,0,0,0,.276.19,5.11,5.11,0,0,0,.991-.209,32.871,32.871,0,0,1,14.015.357c.275.076.611.133.991.213.355.068.807.133.867.316.089.281-.248.578-.382.673a3.85,3.85,0,0,1-2.236.426c-.6-.033-1.171-.183-1.859-.171-.211,0-.48.039-.506.149-.056.228.217.217.445.232a21.643,21.643,0,0,1,3.459.59,2.259,2.259,0,0,1,.528.125,1.447,1.447,0,0,1,.253.529,3.747,3.747,0,0,1,.17,1.963,3.016,3.016,0,0,1-3.356,2.743,4.57,4.57,0,0,1-2.257-.8,1.585,1.585,0,0,1-.424-.441c-.339-.608-.2-1.48-.7-2.028a4.83,4.83,0,0,0-3.123,1.9,5.96,5.96,0,0,0-1.309,2.446,3.057,3.057,0,0,0,.042,1.963c.579,1.373,2.928.887,4.348.572a10.434,10.434,0,0,1,1.183-.232,4.124,4.124,0,0,1,1.265.106c.943.19,1.828.4,2.2,1.1a1.51,1.51,0,0,1,.168,1.118c-.156.335-.765.323-1.245.278a22.689,22.689,0,0,0-2.554-.529,4.312,4.312,0,0,0-1.266.274c-.779.232-1.56.5-2.365.719a8.057,8.057,0,0,1-2.722.316c-1.843-.183-2.679-1.476-3.082-3.082-.433-1.742.49-2.9.676-4.478.025-.217,0-.482-.211-.5-.319-.034-.509.851-.611,1.244-.156.582-.275.947-.4,1.434a6.42,6.42,0,0,0-.128,3.208,4.356,4.356,0,0,0,2.807,2.722,3.267,3.267,0,0,0,1.542.3,12.891,12.891,0,0,0,1.625-.361c.544-.122,1.076-.248,1.625-.358a.159.159,0,0,1,.041,0,6.429,6.429,0,0,1,1.056.171c2.471.388,4.928.719,7.556.97a22.833,22.833,0,0,1-.824,5.55c-.013.06-.115.639-.3.613-.105-.015-.156-.362-.211-.529a3.4,3.4,0,0,0-.75-1.29,5.18,5.18,0,0,0-.706-.651,17.742,17.742,0,0,0-2.236-1.437,18.542,18.542,0,0,0-3.315-1.6c-.014.167.155.266.252.356a8.979,8.979,0,0,0,1.163.8c1.579,1.035,3.423,1.787,4.5,3.332a3.454,3.454,0,0,1,.7,1.925,3.757,3.757,0,0,1-.635,1.963,8.125,8.125,0,0,1-2.3,2.278c-.086.061-.244.24-.379.126-.177-.08-.068-.255-.042-.38a5.766,5.766,0,0,0-.382-3.272,13.534,13.534,0,0,0-1.92-2.426c-.636-.8-1.347-1.568-1.984-2.385-.309-.4-.64-.807-.991-1.179a2.684,2.684,0,0,0-1.246-.932c.076.772.7,1.255,1.2,1.753s.893,1.1,1.351,1.624a16.312,16.312,0,0,1,2.6,3.355c.6,1.2,1.077,3.629.128,4.77a4.689,4.689,0,0,1-1.88,1.1,6.637,6.637,0,0,1-2.3.674c-.3-.1.448-.674.591-1.077a5.453,5.453,0,0,0,.243-.909,10.234,10.234,0,0,0,.094-1.094,4.7,4.7,0,0,0-.358-1.922c-.39-1.073-1-2.191-1.456-3.207-.723-1.6-1.406-3.207-2.259-4.729-.145-.258-.416-.726-.654-1.1-.075-.118-.214-.289-.338-.232s.049.532.063.59a7.153,7.153,0,0,0,.7,1.625c.374.707.674,1.434.993,2.088a43.147,43.147,0,0,1,1.984,4.2,6.892,6.892,0,0,1,.506,2.6,4.906,4.906,0,0,1-.634,2.451,2.685,2.685,0,0,1-1.9,1.2,11.563,11.563,0,0,1-2.785.209c-.066-.244.1-.25.168-.292a3.464,3.464,0,0,0,1.392-2.534,7.784,7.784,0,0,0-.169-3.058c-.431-1.807-1.182-3.611-1.688-5.215-.538-1.712-1.087-3.481-1.54-5.364A11.462,11.462,0,0,1,634.676,55a2.777,2.777,0,0,0,.1-1.1c-.029-.1-.091-.237-.211-.213-.143.031-.227.6-.275.761-.094.328-.189.579-.23.8-.062.323-.057.639-.105.928-.053.308-.1.593-.128.886a10.218,10.218,0,0,0,.381,3.652c.577,2.157,1.379,4.15,1.983,6.227.279.958.6,2.134.867,3.249a6.285,6.285,0,0,1,.231,3.484,3.76,3.76,0,0,1-1.9,2.214,3.417,3.417,0,0,1-1.6.445h-.1A4.9,4.9,0,0,1,632.439,76.152ZM650.408,51.11a9.281,9.281,0,0,1-1.147.221c-.38.072-.938.205-1.021.494.537-.053,1.481,0,2.117-.113.448-.085,1.067-.27.718-.7l-.061,0A3.9,3.9,0,0,0,650.408,51.11Zm-.3-.475c.663.045,1.448-.027,1.1-.636-.015-.1-1.037.061-1.307.061-.832,0-2.775-.095-2.661.213.221.358.855.148,1.308.148S649.651,50.6,650.105,50.635Zm-2.323-1.788c-.022,0,.421.106.4.111.427.121.461.11.9.243a3.714,3.714,0,0,0,2.112.229.5.5,0,0,0-.106-.442c-1.07-.083-1.831-.133-2.9-.22-.009,0-.074,0-.153-.011s-.141-.012-.2-.012C647.722,48.745,647.65,48.766,647.782,48.847Zm-8.694-1.693a2.478,2.478,0,0,0,.317,1.411,1.436,1.436,0,0,0,2.384-.463,2.142,2.142,0,0,0-.042-.948c-.039-.167-.176-.335-.106-.509a5.728,5.728,0,0,1,1.41.051,6.988,6.988,0,0,0,1.1.075.211.211,0,0,0-.088-.225,2.047,2.047,0,0,0-.862-.3c-.185-.042-.4-.058-.592-.092a8.662,8.662,0,0,0-1.454-.039c-1.778.019-3.84.384-4.433,1.625-.117.244-.267.7-.063.739.709-.575,1.2-1.33,2.337-1.33ZM626.106,74.147c-.567-.114-.869-.62-1.245-.975-.171-.158-.392-.308-.59-.46a18.134,18.134,0,0,0-4.432-2.937c.119-1.54.366-3.366-.422-4.348a1.789,1.789,0,0,0-1.034-.654,1.463,1.463,0,0,0-.676.19c-.716.369-1.278,1.252-2.088,1.481a1.774,1.774,0,0,1-1.753-.654,3.044,3.044,0,0,1-.422-1.035,6.428,6.428,0,0,1-.211-1.225c-.012-.578.415-1.483-.127-1.8a6.644,6.644,0,0,0-.611,2.788,4.036,4.036,0,0,0-1.184.928c-.156.213-.193.582-.526.633a6.17,6.17,0,0,1,2.132-4.73,2.915,2.915,0,0,1,1.519-.78,9.138,9.138,0,0,1,2.047.233c.035-.456-.7-.544-1.1-.674a5.56,5.56,0,0,1-1.012-.361,1.756,1.756,0,0,1-.485-1.2,3.023,3.023,0,0,1,.357-1.8c.266-.407.746-.7.8-1.244-.245-.087-.418.187-.549.316a5.488,5.488,0,0,0-1.161,1.689c-.863.088-1.085.814-1.878.97a3.6,3.6,0,0,1,1.1-2.344A3.463,3.463,0,0,1,614.815,55a4.95,4.95,0,0,0,.57.064c.151-.014.282-.217.422-.274a2.267,2.267,0,0,1,1.836.168,2.587,2.587,0,0,1,.4.548c.13.19.288.383.38.551.157.278.207.647.57.779.338-.757-.352-1.194-.337-1.857a1.208,1.208,0,0,1,.358-.779,3.07,3.07,0,0,1,1.2-.751,7.566,7.566,0,0,1,1.436-.372,2.4,2.4,0,0,1,2.173,2.662c-.167,1.385-1.354,2.161-1.372,3.48a4.479,4.479,0,0,0,.634,2.13c.982,1.8,3.052,2.5,4.58,3.717.1,2.218.613,4.625.19,6.9a3.835,3.835,0,0,1-.634,1.838,1.2,1.2,0,0,1-.868.363A1.3,1.3,0,0,1,626.106,74.147Zm25.477-17.118c-.792-.355-1.606-.761-2.407-1.1a7.844,7.844,0,0,0-4.307-.845,4.982,4.982,0,0,0-1.414.335,9.451,9.451,0,0,0-1.35.887c-.142-.068.016-.328.086-.435a4.155,4.155,0,0,1,.81-.79,4.374,4.374,0,0,1,1.362-.8,6.465,6.465,0,0,1,2.068-.361,11.048,11.048,0,0,1,1.372.084,11.975,11.975,0,0,1,3.271.867,12.305,12.305,0,0,1,1.752,1.013,5.739,5.739,0,0,0,2.385,1.118c.81.137,1.537.027,1.583.149.1.177-1.558.65-2.47.653h-.017A6.5,6.5,0,0,1,651.583,57.029ZM619.374,53a4.529,4.529,0,0,0-1.119-1.476c-.219-.146-.51-.141-.654-.4.121-.153.383-.141.7-.126a4.85,4.85,0,0,1,3.06,1.035,1.222,1.222,0,0,1,.3.7,1.146,1.146,0,0,1-.352.018,1.3,1.3,0,0,0-.283.005,8.957,8.957,0,0,1-1.354.279A1.5,1.5,0,0,1,619.374,53Z"/><path class="b" d="M656.927,90.213A4.472,4.472,0,0,1,656,84.241c.1-.194.4-.715.084-.78-.227-.045-.508.392-.633.529a5.345,5.345,0,0,0-.548.59,5.981,5.981,0,0,0-.381.886,9.031,9.031,0,0,1-.381.886,2.606,2.606,0,0,1-1.877,1.119c-2.4.255-2.228-2.5-2.976-4.01-.381.141-.227.686-.189,1.12a4.917,4.917,0,0,1,.021,1.331,4.787,4.787,0,0,0-1.458,1.541c-.144.292-.13.73-.526.844,0-3.085,1.153-4.957,3.06-6.12.632-.39,1.337-.647,2.047-.994,0-.118-.084-.156-.127-.231-1.2.011-3.055.49-2.764-1.142.068-.381.227-.777.314-1.2.039-.186.121-.384.15-.547.017-.1.147-.263.125-.381-.017-.1-.122-.133-.275-.125-.685.89-.619,1.982-.82,2.1-1.167.191-1.658,1.343-2.661,1.632.26-2.442,1.8-3.6,3.863-4.245a2.506,2.506,0,0,1,2.407-1.643,4.7,4.7,0,0,1,2.785,1.244c.388.305.888.883,1.606.613a2.942,2.942,0,0,0,1.265-1.267c.337-.544.724-1.088,1.034-1.5.751-.989,1.322-2.012,2.006-3.039a14.531,14.531,0,0,1,3.61-3.968,3.434,3.434,0,0,1,2.3-.718,6.081,6.081,0,0,1,1.782.464c.4.164,1.053.343,1.193.655.214.479-.172,1.533-.294,1.9-.207.612-.413,1.118-.614,1.647-1.156,3.066-1.2,6.957-3.081,9.411-.138.179-.454.528-.591.528-.167,0-.365-.342-.464-.445a1.75,1.75,0,0,0-1.013-.525,1.639,1.639,0,0,0-1.31.084c-1.007.544-1.324,1.784-1.5,3.164-.168,1.351-.294,2.8-1.16,3.5a2.086,2.086,0,0,1-2.259.171,2.958,2.958,0,0,1-.823-.825c-.2-.29-.371-.67-.865-.76a4.761,4.761,0,0,0,.844,1.837c.11.16.353.381.381.506s-.049.449-.043.654c.017.635.242,1.156.275,1.712A1.1,1.1,0,0,1,656.927,90.213Zm-39.3-1.435a5.487,5.487,0,0,1-.464-1.813,4.069,4.069,0,0,1,.823-2.617c.125-.21.409-.575.294-.716-.1-.124-.172-.038-.338.085a6.112,6.112,0,0,0-.886.864,2.14,2.14,0,0,1-1.477.863c-.567.014-1.495-.346-1.667-.8-.119-.312-.058-.6-.148-.844a5.127,5.127,0,0,0-.317-.677,2.4,2.4,0,0,0-.929-1.054,1.956,1.956,0,0,0,.317,1.118,2.849,2.849,0,0,1,.4,1.1c0,.144-.258.358-.379.509a4.971,4.971,0,0,0-.8,1.5c-.03.084-.06.233-.168.274-.245-.171-.216-.532-.252-.8a6.988,6.988,0,0,1,.864-4.287c.259-.48.459-1.145.908-1.351.26-.114.555-.157.845-.251.529-.179,1.056-.358,1.645-.548.232-.076.749-.129.717-.319-.035-.232-.644-.206-.886-.232a3.46,3.46,0,0,1-.907-.191c-1.409-.574-.172-2.226-.211-3.333a.939.939,0,0,0-.231-.6c-.374.32-.293.78-.382,1.2a2.331,2.331,0,0,1-.38,1.1,4.92,4.92,0,0,1-.717.381,5.223,5.223,0,0,0-.717.376c-.37.275-.425.723-.909.826a2.586,2.586,0,0,1,.275-1.077A4.484,4.484,0,0,1,612.6,75.4c.406-.334,1.123-.711,1.526-1.076a4.445,4.445,0,0,1,1.534-.974,2.888,2.888,0,0,1,2.07-.125c1.033.491,1.35,1.959,2.089,2.891a2.317,2.317,0,0,0,1.583.909,8.546,8.546,0,0,0,2.321-.084,10.8,10.8,0,0,0,2.026-.468,5.216,5.216,0,0,1,1.837-.631,10.887,10.887,0,0,1,1.287.148,41.008,41.008,0,0,0,9.455.107c1.237-.156,2.41-.419,3.694-.613a6.435,6.435,0,0,0,1.2-.213,6.563,6.563,0,0,0,2.658-1.647,4.3,4.3,0,0,1,.7-.715.2.2,0,0,1,.043-.023,11.386,11.386,0,0,0,1.6-.715,6.6,6.6,0,0,0,1.708-2.028,15.741,15.741,0,0,0,1.225-2.491,22.456,22.456,0,0,0,.764-2.876,15.483,15.483,0,0,0,.312-1.64c.086-.768.172-1.536.253-2.236a175.042,175.042,0,0,0,21.55.612c.585-.031,1.183-.012,1.774,0,1.7.03,3.609.019,5.466.084a16.371,16.371,0,0,0,1.75-.038,10.81,10.81,0,0,0,1.649-.236,25.908,25.908,0,0,0,2.911-.8c1.616-.586,3.735-1.647,3.083-4.073a4.447,4.447,0,0,0-4.179-3.23c-2.39-.269-4.273.594-6.143,1.183-1.914.6-3.775,1.187-5.656,1.773-1.854.575-3.688,1.244-5.637,1.773a12.775,12.775,0,0,1-3.334.38,16.361,16.361,0,0,1-3.292-.421,10.347,10.347,0,0,1-2.765-.951,5.011,5.011,0,0,1-1.836-1.856,5.974,5.974,0,0,1-.992-2.724c-.23-2.408,1.255-3.682,2.891-4.451,2.482-1.171,6.314-1.35,9.688-.867a9.171,9.171,0,0,0,1.772,0,8.9,8.9,0,0,0,4.475-1.16c.049.007.092-.1.161-.118a2.741,2.741,0,0,1-.243,1.213,8.792,8.792,0,0,1-4.6,4.942,6.031,6.031,0,0,1-2.131.608,9.027,9.027,0,0,1-2.386-.335c-1.1-.221-2.256-.453-3.419-.7a2.857,2.857,0,0,0-1.349-.148,5.086,5.086,0,0,0-1.584.8,2.267,2.267,0,0,0-.908,1.453,2.79,2.79,0,0,0,1.689,2.957,7.778,7.778,0,0,0,4.031.653,14.085,14.085,0,0,0,3.9-.822c2.261-.8,4.431-1.917,6.71-2.765,1.707-.636,3.566-1.165,5.341-1.75a9.655,9.655,0,0,1,1.9-.468,10.833,10.833,0,0,1,4.223.4,5.971,5.971,0,0,1,3.017,1.708,7.072,7.072,0,0,1,1.688,3.04,4.37,4.37,0,0,1-.653,3.739,6.889,6.889,0,0,1-2.618,2.107,10.777,10.777,0,0,1-3.63,1.1,18.336,18.336,0,0,1-4.475-.126c-1.391-.2-2.515-.554-4.054-.677a4.38,4.38,0,0,1,2.175,2.029c.384,1.031.454,2.385,1.161,3.057a1.932,1.932,0,0,0,1.646.446,3.041,3.041,0,0,0,1.394-.719,5.889,5.889,0,0,0,1.582-2.64c1.273.113,1.968,1.042,2.68,1.819a16.875,16.875,0,0,1,3.377,5.611,8.76,8.76,0,0,1,.929,3.545,3.393,3.393,0,0,0-2.575.742A2.5,2.5,0,0,0,688,79.049c.523,1.316,2.484,2,2.153,4.032a2.621,2.621,0,0,1-.633,1.457,2.661,2.661,0,0,1-1.668.567c-.751.038-1.134-.373-1.773-.461a.959.959,0,0,0,.38.461c.124.1.426.262.464.426a2.225,2.225,0,0,1-.127.738,2.483,2.483,0,0,0-.041,1.1c.114.441.436.635.233,1.08-.242.032-.41-.178-.551-.319-.916-.9-1.105-2.651-1.35-4.283-.039-.263-.065-.514-.381-.548-.119,1.75-.394,3.3-1.478,4.051a1.871,1.871,0,0,1-2.088-.125c-.529-.415-.843-1.031-1.542-1.225.07.681.979.768,1.162,1.392a3.25,3.25,0,0,1-.106,1.328c-.07.445-.132.859-.189,1.289-.233-.019-.393-.239-.529-.421a5.567,5.567,0,0,1-.843-2.005,12.145,12.145,0,0,1,.105-1.624c-.018-.685-.474-1.175-.17-1.814a6.2,6.2,0,0,1,1.583-1.647c.174-.163.4-.315.465-.548-.281-.152-.573.126-.824.293-.6.415-1.794,1.457-2.7.909a1.775,1.775,0,0,1-.717-1.014,5.63,5.63,0,0,1,.191-1.561c.073-.482.155-1.164-.359-1.286.038,1.747-1.3,2.15-1.836,3.4-.043.1-.054.514-.275.423-.121-.054-.075-.061-.063-.19a3.818,3.818,0,0,1,.19-.633,6.373,6.373,0,0,1,.928-2.365c.352-.43.915-.711,1.247-1.1.4-.475.451-1.289,1.246-1.373a2.576,2.576,0,0,1,1.224.232c.972.4,1.48,1.586,2.976,1.267.681-1.08,1.427-2.815.7-4.348-.239-.507-.544-1.13-1.226-1.141a2.106,2.106,0,0,0-1.224.528c-.36.263-.68.525-.991.76a16.628,16.628,0,0,1-2.173,1.328,24.66,24.66,0,0,1-2.364,1.137,6.464,6.464,0,0,1-2.85.658,2.472,2.472,0,0,1-2.152-1.35,6.165,6.165,0,0,1-.253-3.081,21.442,21.442,0,0,1,.971-4.288,2.825,2.825,0,0,0,.274-1.5c-.118-.441-.932-.757-1.35-.909a11.611,11.611,0,0,0-5.932-.381,10.414,10.414,0,0,0-3,1.522c-.941.62-1.853,1.232-2.68,1.837-1.727,1.263-3.438,2.6-5.318,3.717a31.312,31.312,0,0,1-4.6,2.172,2.708,2.708,0,0,1-1.773.338c-.017-.163.166-.229.253-.32a8.485,8.485,0,0,0,1.2-1.583,1.787,1.787,0,0,0,.317-.757c-.243-.121-.461.141-.59.274-.482.487-.831,1.134-1.289,1.666-.308.362-.625.693-.907,1.054a7.541,7.541,0,0,0-.717,1.248,33.665,33.665,0,0,1-2.278,3.61,3.732,3.732,0,0,1-.909,1.053c-.8.464-2.339.229-3.314.041A16.083,16.083,0,0,0,636.455,82a13.252,13.252,0,0,0-1.775.084c-.585.042-1.152.16-1.709.213a5.905,5.905,0,0,0-2.954.843c-.367.264-.723.534-1.119.78-.787-.669-1.177-1.426-2.344-1.6a3.457,3.457,0,0,0-3.715,2.066,5.05,5.05,0,0,0-.1.886c-.152,1.305-.806,2.655-1.9,3a1.268,1.268,0,0,1-.549.023c-1.051-.232-1.048-1.814-2.471-1.587.009.138.158.218.255.3a11.683,11.683,0,0,1,.949.825,5.245,5.245,0,0,1-.422,2.279A2.586,2.586,0,0,1,617.628,88.779Zm14.2-13.127c-.112-.027-.331-.069-.358-.149-.058-.158.281-.418.358-.506.923-1.038,1.188-2.872,1.055-4.747-.038-.56-.018-1.069-.085-1.583-.068-.532-.094-1.053-.127-1.563a26,26,0,0,0-.464-2.914c-.341-1.913-.621-3.956-.844-5.949a10.193,10.193,0,0,1-.085-1.628,9.5,9.5,0,0,1,.234-1.453,8.214,8.214,0,0,1,.337-1.354c.07-.185.138-.437.21-.631.094-.251.17-.335-.064-.529-.274.068-.318.381-.421.593s-.23.446-.317.678a6.8,6.8,0,0,0-.274,1.726,28.107,28.107,0,0,0,.021,3.8c.06,1.265.175,2.507.316,3.693.22,1.845.648,3.329.739,5.254.088,1.849.187,4.108-.38,5.489a2.2,2.2,0,0,1-2.469,1.434,4.7,4.7,0,0,1-2.6-.9c-.13-.1-.234-.141-.17-.274.059-.118.414-.16.508-.213,1.351-.738,1.282-3.629,1.2-5.718-.041-1.084-.158-2.168-.231-3.252a36.721,36.721,0,0,1-.19-6.585,38.025,38.025,0,0,1,1.352-5.6A3.838,3.838,0,0,1,630.27,50.5c.721.266,1.784,1.137,2.744.5a1.013,1.013,0,0,0-.528-.316,6.548,6.548,0,0,1-1.857-.653,3.9,3.9,0,0,1-1.351-2.005,3.757,3.757,0,0,1,.4-2.7,2.417,2.417,0,0,1,2.048-1.392,4.082,4.082,0,0,1,2.574.761,1.788,1.788,0,0,0,.276.185,4.575,4.575,0,0,0,.991-.209,32.881,32.881,0,0,1,14.014.357c.277.08.612.138.993.212.353.069.807.134.864.317.092.285-.246.578-.379.677a3.889,3.889,0,0,1-2.238.423c-.6-.035-1.169-.184-1.857-.172-.212,0-.481.038-.507.149-.055.229.219.217.444.232a22.16,22.16,0,0,1,3.461.589,2.039,2.039,0,0,1,.527.13,1.412,1.412,0,0,1,.253.525,3.775,3.775,0,0,1,.169,1.963,3.019,3.019,0,0,1-3.355,2.746,4.654,4.654,0,0,1-2.259-.8,1.661,1.661,0,0,1-.422-.441c-.339-.607-.2-1.48-.7-2.027a4.825,4.825,0,0,0-3.122,1.9,5.929,5.929,0,0,0-1.308,2.45,3.058,3.058,0,0,0,.041,1.963c.58,1.369,2.93.882,4.349.566a10.52,10.52,0,0,1,1.182-.228,4.229,4.229,0,0,1,1.265.1c.943.19,1.826.407,2.2,1.1a1.519,1.519,0,0,1,.17,1.119c-.157.335-.766.324-1.246.275a23.823,23.823,0,0,0-2.554-.529,4.563,4.563,0,0,0-1.265.275c-.779.232-1.559.5-2.365.718a8.012,8.012,0,0,1-2.722.316c-1.844-.183-2.68-1.472-3.082-3.082-.435-1.742.491-2.894.677-4.474.023-.22,0-.487-.212-.5-.318-.031-.508.852-.612,1.243-.155.583-.274.949-.4,1.436a6.407,6.407,0,0,0-.127,3.209,4.37,4.37,0,0,0,2.806,2.724,3.332,3.332,0,0,0,1.542.293,13.835,13.835,0,0,0,1.625-.358c.546-.125,1.077-.248,1.625-.361a.212.212,0,0,0,.041,0,6.375,6.375,0,0,1,1.057.171c2.471.388,4.927.719,7.555.969a22.857,22.857,0,0,1-.823,5.55c-.015.061-.116.639-.3.612-.107-.015-.156-.361-.211-.528a3.466,3.466,0,0,0-.751-1.29,5.789,5.789,0,0,0-.7-.65A17.663,17.663,0,0,0,646.67,63.1a18.191,18.191,0,0,0-3.313-1.606c-.016.168.155.267.253.358a8.209,8.209,0,0,0,1.16.8c1.581,1.038,3.423,1.787,4.5,3.336a3.4,3.4,0,0,1,.7,1.921,3.737,3.737,0,0,1-.633,1.963,8.067,8.067,0,0,1-2.3,2.278c-.085.066-.245.245-.379.126-.179-.079-.068-.255-.043-.381a5.777,5.777,0,0,0-.379-3.271,13.794,13.794,0,0,0-1.921-2.427c-.637-.791-1.348-1.564-1.984-2.385-.308-.4-.64-.807-.992-1.18a2.7,2.7,0,0,0-1.247-.928c.077.769.706,1.252,1.2,1.75s.892,1.1,1.35,1.628a16.111,16.111,0,0,1,2.6,3.355c.6,1.2,1.076,3.63.125,4.767a4.686,4.686,0,0,1-1.878,1.1,6.645,6.645,0,0,1-2.3.677c-.294-.1.449-.677.591-1.076a5.725,5.725,0,0,0,.244-.909c.063-.35.07-.773.094-1.1a4.7,4.7,0,0,0-.359-1.917c-.391-1.076-1-2.2-1.456-3.21-.724-1.606-1.4-3.2-2.259-4.729-.145-.259-.416-.726-.655-1.1-.074-.117-.214-.289-.336-.232s.047.534.062.594a7.112,7.112,0,0,0,.7,1.62c.375.708.673,1.435.991,2.093a42.013,42.013,0,0,1,1.984,4.2,6.81,6.81,0,0,1,.508,2.595,4.905,4.905,0,0,1-.633,2.449,2.673,2.673,0,0,1-1.9,1.2,11.765,11.765,0,0,1-2.787.212c-.066-.243.1-.254.168-.3a3.467,3.467,0,0,0,1.394-2.534,7.8,7.8,0,0,0-.17-3.058c-.431-1.807-1.184-3.606-1.688-5.215-.539-1.713-1.088-3.481-1.54-5.36a11.5,11.5,0,0,1-.064-4.71,2.783,2.783,0,0,0,.106-1.1c-.03-.1-.091-.232-.212-.209-.141.026-.227.6-.274.756-.1.332-.19.579-.231.8-.061.327-.057.643-.106.928-.051.308-.094.594-.128.887a10.186,10.186,0,0,0,.382,3.651c.577,2.16,1.38,4.151,1.984,6.227.277.959.6,2.138.865,3.248a6.3,6.3,0,0,1,.231,3.485,3.77,3.77,0,0,1-1.9,2.218,3.485,3.485,0,0,1-1.6.442l-.116,0A4.878,4.878,0,0,1,631.832,75.652ZM649.8,50.614a10.037,10.037,0,0,1-1.146.216c-.38.076-.94.21-1.023.5.54-.053,1.483,0,2.12-.114.446-.084,1.067-.27.717-.7l-.053,0A4,4,0,0,0,649.8,50.614Zm-.3-.481c.664.05,1.449-.025,1.1-.631-.016-.1-1.039.058-1.309.058-.83,0-2.773-.091-2.66.217.22.356.856.144,1.308.144S649.045,50.1,649.5,50.134Zm-2.322-1.787c-.022,0,.419.107.4.111.424.122.459.11.9.243a3.757,3.757,0,0,0,2.113.232.513.513,0,0,0-.107-.445c-1.069-.084-1.832-.132-2.9-.221a1.115,1.115,0,0,1-.165-.01c-.064-.005-.137-.01-.2-.01C647.114,48.246,647.045,48.266,647.176,48.346Zm-8.695-1.692a2.512,2.512,0,0,0,.315,1.411,1.435,1.435,0,0,0,2.386-.464,2.137,2.137,0,0,0-.042-.947c-.04-.164-.176-.331-.1-.51a5.682,5.682,0,0,1,1.4.053,6.936,6.936,0,0,0,1.107.076.208.208,0,0,0-.088-.228,2.129,2.129,0,0,0-.86-.3c-.186-.041-.4-.057-.592-.087a8.988,8.988,0,0,0-1.456-.041c-1.779.019-3.84.388-4.432,1.624-.116.244-.266.7-.063.738.707-.573,1.194-1.328,2.334-1.328ZM625.5,73.647c-.567-.114-.87-.62-1.244-.97-.172-.164-.394-.311-.591-.464a18.038,18.038,0,0,0-4.432-2.933c.117-1.541.365-3.367-.423-4.348a1.766,1.766,0,0,0-1.034-.658,1.493,1.493,0,0,0-.675.19c-.717.369-1.278,1.252-2.091,1.48a1.768,1.768,0,0,1-1.751-.655,3,3,0,0,1-.422-1.034,6.242,6.242,0,0,1-.21-1.225c-.013-.573.415-1.484-.129-1.792a6.683,6.683,0,0,0-.612,2.785,3.981,3.981,0,0,0-1.181.928c-.157.217-.193.586-.528.631a6.165,6.165,0,0,1,2.131-4.724,2.922,2.922,0,0,1,1.521-.784,9.125,9.125,0,0,1,2.047.236c.036-.46-.7-.548-1.1-.677a5.659,5.659,0,0,1-1.013-.358,1.778,1.778,0,0,1-.486-1.206,3,3,0,0,1,.359-1.791c.266-.411.746-.7.8-1.248-.244-.087-.416.187-.548.32a5.46,5.46,0,0,0-1.161,1.685c-.865.087-1.085.818-1.877.97a3.589,3.589,0,0,1,1.1-2.34,3.465,3.465,0,0,1,2.259-1.164,5.213,5.213,0,0,0,.57.065c.152-.015.283-.213.422-.274a2.292,2.292,0,0,1,1.836.167,2.647,2.647,0,0,1,.4.552c.13.19.286.384.379.548.158.277.208.65.571.78.337-.757-.352-1.2-.338-1.857a1.223,1.223,0,0,1,.36-.78,3.14,3.14,0,0,1,1.2-.749,7.233,7.233,0,0,1,1.435-.369,2.391,2.391,0,0,1,2.174,2.659c-.167,1.385-1.354,2.161-1.372,3.481a4.508,4.508,0,0,0,.634,2.134c.982,1.795,3.054,2.495,4.58,3.713.1,2.22.613,4.624.19,6.9a3.8,3.8,0,0,1-.634,1.832,1.194,1.194,0,0,1-.864.365A1.277,1.277,0,0,1,625.5,73.647Zm25.477-17.118c-.791-.35-1.607-.757-2.408-1.1a7.861,7.861,0,0,0-4.3-.844,5.007,5.007,0,0,0-1.414.338,9.535,9.535,0,0,0-1.352.883c-.141-.069.015-.324.088-.434a4.206,4.206,0,0,1,.808-.791,4.463,4.463,0,0,1,1.363-.8,6.379,6.379,0,0,1,2.065-.356,10.555,10.555,0,0,1,1.373.083,11.97,11.97,0,0,1,3.271.864,12.557,12.557,0,0,1,1.751,1.015,5.786,5.786,0,0,0,2.385,1.119c.811.133,1.538.026,1.583.148.1.176-1.556.647-2.468.652H653.7A6.472,6.472,0,0,1,650.976,56.529ZM618.768,52.5a4.613,4.613,0,0,0-1.119-1.479c-.221-.141-.511-.137-.655-.4.12-.152.382-.141.7-.125a4.844,4.844,0,0,1,3.06,1.03,1.225,1.225,0,0,1,.3.7,1.127,1.127,0,0,1-.349.017,1.249,1.249,0,0,0-.284.005,8.626,8.626,0,0,1-1.358.281A1.517,1.517,0,0,1,618.768,52.5Z"/><path class="c" d="M486.7,61.231c-.781,0-1.749-.061-2.934-.156a1.577,1.577,0,0,1,.061.532,1.66,1.66,0,0,1-.061.529c1.4.065,2,.323,2,1.008a3.814,3.814,0,0,1-.159.825L481,78.014l-3.351-10.708a18.9,18.9,0,0,1-.966-6.231,10,10,0,0,1-3.153,0c0,.186-.031.376-.031.563a19.165,19.165,0,0,0,.19,3.351L469.01,78.014l-3.6-13.44a4.584,4.584,0,0,1-.271-1.441c0-.784.709-.9,2.362-1a3.572,3.572,0,0,1-.06-.529,3.163,3.163,0,0,1,.06-.532c-1.435.095-2.777.156-3.995.156s-2.56-.061-4-.156a1.577,1.577,0,0,1,.061.532,1.66,1.66,0,0,1-.061.529c1.436.156,1.741.666,2.2,2.21l5.261,18.4a10.652,10.652,0,0,1,1.7-.125,9.854,9.854,0,0,1,1.654.125l-.679-2.358,4.718-13.105,4.774,15.463a9.048,9.048,0,0,1,1.562-.125,8.8,8.8,0,0,1,1.561.125l-.636-2.347,5.169-15.311c.607-1.811,1.1-2.7,2.819-2.948a3.474,3.474,0,0,1-.063-.529,3.069,3.069,0,0,1,.063-.532C488.419,61.17,487.481,61.231,486.7,61.231ZM716.769,78.942a1.912,1.912,0,0,0-1.872,1.841,1.878,1.878,0,0,0,1.872,1.876,1.8,1.8,0,0,0,1.842-1.876A1.825,1.825,0,0,0,716.769,78.942ZM428.9,61.082c-1.279,0-2.622.095-4.058.095-1.249,0-2.686-.064-4.247-.159a1.575,1.575,0,0,1,.062.532,1.673,1.673,0,0,1-.062.533c2.779.03,3,.373,3,2.716V78.942c0,2.34-.219,2.651-3,2.682a1.664,1.664,0,0,1,.062.532,1.74,1.74,0,0,1-.062.564c1.561-.1,3.123-.156,4.684-.156s3.122.06,4.683.156a3.336,3.336,0,0,1-.062-.564,3.431,3.431,0,0,1,.062-.532c-2.779-.031-3-.342-3-2.682V72.51c1.592.125,2.716.186,3.434.186,4.778,0,7.4-2.184,7.4-5.87C437.8,62.988,434.831,61.082,428.9,61.082Zm.125,10.241a19.378,19.378,0,0,1-2.061-.126V62.425c.283,0,.532-.03.811-.03,4.185,0,6.214,1.434,6.214,4.622C433.987,69.733,432.239,71.323,429.023,71.323Zm278.7-1.248-3.872-1.529c-1.809-.719-2.745-1.75-2.745-3.123,0-1.906,1.746-3.435,4.527-3.435a5.4,5.4,0,0,1,5.525,4.34,3.241,3.241,0,0,1,.781-.061,3.1,3.1,0,0,1,.748.061v-.221c0-.654-.185-1.81-.343-3.556a15.352,15.352,0,0,0-6.869-1.811c-4.463,0-7.43,2.621-7.43,5.774,0,2.53,1.531,4.28,4.714,5.558l4.184,1.689c2.623,1.057,3.84,2.088,3.84,4.025,0,2.122-2,3.807-5.308,3.807-3.153,0-5.62-1.966-6.494-5.462a5.291,5.291,0,0,1-.749.065c-.28,0-.591-.035-.905-.065v.437c0,.97.123,2.218.218,3.778A14.584,14.584,0,0,0,705.883,83c4.809,0,8.025-2.686,8.025-6.372C713.908,73.476,711.878,71.73,707.725,70.075ZM507.2,82.564c1.28,0,4.4.125,9.367.125,1.811,0,3.434-.03,4.838-.125.345-1.967.781-3.683.969-5.182a2.228,2.228,0,0,1-1.062-.285,5.506,5.506,0,0,1-2.186,3.344c-1.123.654-3.4.685-6.9.685h-3.34V72.072h4.653c2.528,0,3.34.186,3.621,2.781a1.577,1.577,0,0,1,.531-.065,1.493,1.493,0,0,1,.531.065c-.031-1.157-.063-2.313-.063-3.466s.032-2.343.063-3.5a3.213,3.213,0,0,1-.531.061,3.621,3.621,0,0,1-.531-.061c-.281,2.685-1.592,2.78-5.027,2.78H510.6c-.25,0-.843-.064-1.717-.1V62.486h3.559c2.686,0,4.371.125,5.182.658a4.276,4.276,0,0,1,1.5,2.933,1.777,1.777,0,0,1,.564-.061,1.675,1.675,0,0,1,.53.061c0-1.4-.251-3.059-.313-4.964-1.623.034-2.871.064-3.684.064H507.2c-1.561,0-3.122-.064-4.683-.159a1.576,1.576,0,0,1,.062.532,1.674,1.674,0,0,1-.062.533c2.779.03,3,.373,3,2.716V78.942c0,2.34-.218,2.651-3,2.682a1.665,1.665,0,0,1,.062.532,1.741,1.741,0,0,1-.062.564C504.076,82.624,505.637,82.564,507.2,82.564ZM571.317,61.55a1.648,1.648,0,0,1-.063.533c2.779.03,3,.373,3,2.716V78.942c0,2.34-.219,2.651-3,2.682a1.639,1.639,0,0,1,.063.532,1.715,1.715,0,0,1-.063.564c1.561-.1,3.123-.156,4.714-.156s3.185.06,4.747.156a3.331,3.331,0,0,1-.063-.564,3.435,3.435,0,0,1,.063-.532c-2.779-.031-3-.342-3-2.682V64.8c0-2.343.219-2.686,3-2.716a3.46,3.46,0,0,1-.063-.533,3.057,3.057,0,0,1,.063-.532c-1.562.095-3.153.159-4.747.159s-3.153-.064-4.714-.159A1.552,1.552,0,0,1,571.317,61.55ZM745.023,78.942a1.913,1.913,0,0,0-1.874,1.841,1.881,1.881,0,0,0,1.874,1.876,1.8,1.8,0,0,0,1.842-1.876A1.825,1.825,0,0,0,745.023,78.942Zm-5.931.529-6.151-18.358c-.562.034-1.155.064-1.717.064-.594,0-1.156-.03-1.748-.064l.592,1.936-5.807,15.642c-.687,1.872-1.218,2.842-2.653,2.933a1.638,1.638,0,0,1,.063.532,1.713,1.713,0,0,1-.063.564c1.248-.1,2.153-.156,2.747-.156s1.466.06,2.716.156a3.438,3.438,0,0,1-.061-.564,3.544,3.544,0,0,1,.061-.532c-1.154-.122-1.686-.373-1.686-.966a2.418,2.418,0,0,1,.189-.78l1.4-4h7.369l1.126,3.435a4.366,4.366,0,0,1,.31,1.343c0,.844-.687.905-2.529.966a1.639,1.639,0,0,1,.063.532,1.715,1.715,0,0,1-.063.564c1.437-.1,2.779-.156,4.027-.156s2.592.06,4.029.156a3.331,3.331,0,0,1-.063-.564,3.435,3.435,0,0,1,.063-.532C739.935,81.438,739.56,80.844,739.092,79.471Zm-11.615-4.964,3.341-9.4,3.091,9.4ZM449.94,60.74c-6.244,0-10.552,4.432-10.552,11.206,0,6.619,4.121,11.055,10.022,11.055,6.307,0,10.553-4.4,10.553-11.211C459.963,65.141,455.9,60.74,449.94,60.74Zm-.468,20.884c-4.058,0-6.245-3.275-6.245-9.678,0-6.679,2.249-10.054,6.651-10.054,4.091,0,6.275,3.31,6.275,9.773C456.153,78.284,453.843,81.624,449.472,81.624ZM565.018,61.177c-.968,0-2.249-.064-3.809-.159a1.575,1.575,0,0,1,.062.532,1.673,1.673,0,0,1-.062.533c2.81.03,3.028.373,3.028,2.716V77.942l-13.081-16.86c-.719.065-1.469.095-2.187.095s-1.436-.03-2.185-.095l2.185,2.811V78.942c0,2.366-.249,2.682-3.155,2.682-1.527,0-3.09-1.313-5.148-3.743l-4.589-5.436c3.746-.59,5.744-2.591,5.744-5.493,0-3.842-3.028-5.87-9.023-5.87-1.312,0-2.654.095-3.965.095-1.561,0-3.122-.064-4.683-.159a1.577,1.577,0,0,1,.062.532,1.674,1.674,0,0,1-.062.533c2.779.03,3,.373,3,2.716V78.942c0,2.34-.218,2.651-3,2.682a1.665,1.665,0,0,1,.062.532,1.742,1.742,0,0,1-.062.564c1.561-.1,3.122-.156,4.714-.156s3.185.06,4.746.156a3.556,3.556,0,0,1-.062-.564,3.7,3.7,0,0,1,.062-.532c-2.841,0-3.091-.312-3.091-2.682v-6h2.029a118.281,118.281,0,0,0,8.461,9.677c.656-.06,1.312-.06,1.968-.06h6.742c1.094,0,2.4.06,3.935.156a3.442,3.442,0,0,1-.064-.564,3.576,3.576,0,0,1,.064-.532c-2.936,0-3.154-.312-3.154-2.682V65.89l12.926,16.769c.781-.065,1.53-.095,2.248-.095.749,0,1.436.03,2.123.095l-2.03-2.72V64.8c0-2.343.219-2.686,3.029-2.716a3.582,3.582,0,0,1-.062-.533,3.158,3.158,0,0,1,.062-.532C567.235,61.113,565.986,61.177,565.018,61.177ZM531.361,71.6h-.842V64.8c0-.221.032-1.031.093-2.374.812-.061,1.407-.091,1.812-.091,3.9,0,5.869,1.464,5.869,4.371C538.293,69.854,535.889,71.6,531.361,71.6ZM495.048,61.177c-1.592,0-3.152-.064-4.714-.159a1.576,1.576,0,0,1,.062.532,1.674,1.674,0,0,1-.062.533c2.778.03,3,.373,3,2.716V78.942c0,2.34-.22,2.651-3,2.682a1.665,1.665,0,0,1,.062.532,1.741,1.741,0,0,1-.062.564c1.562-.1,3.122-.156,4.714-.156s3.185.06,4.746.156a3.439,3.439,0,0,1-.062-.564,3.555,3.555,0,0,1,.062-.532c-2.779-.031-3-.342-3-2.682V64.8c0-2.343.218-2.686,3-2.716a3.582,3.582,0,0,1-.062-.533,3.158,3.158,0,0,1,.062-.532C498.233,61.113,496.64,61.177,495.048,61.177Zm106.3,17.32-8.335-8.586,4.84-4.15c2.247-1.906,4.058-3.465,6.774-3.621a3.682,3.682,0,0,1-.064-.533,3.2,3.2,0,0,1,.064-.529c-1.217.1-2.5.156-3.81.156-.717,0-2-.03-3.808-.156a1.637,1.637,0,0,1,.062.529,1.561,1.561,0,0,1-.062.533c1.156,0,1.747.251,1.747.684,0,.377-.779,1.252-2.341,2.561l-6.649,5.622V64.856c0-2.343.217-2.686,3-2.716a3.524,3.524,0,0,1-.062-.533,3.088,3.088,0,0,1,.062-.529c-1.56.1-3.121.156-4.682.156s-3.123-.06-4.684-.156a1.527,1.527,0,0,1,.063.529,1.636,1.636,0,0,1-.063.533c2.779.03,3,.373,3,2.716V79c0,2.34-.218,2.651-3,2.686a1.61,1.61,0,0,1,.063.529,1.712,1.712,0,0,1-.063.563c1.561-.1,3.122-.156,4.684-.156s3.122.06,4.682.156a2.432,2.432,0,0,1,0-1.092c-2.779-.035-3-.346-3-2.686V72.662l.843-.689,7.055,7.277c.686.715,1.031,1.217,1.031,1.56,0,.5-.625.688-1.842.875a1.634,1.634,0,0,1,.062.529,1.737,1.737,0,0,1-.062.563c1.624-.1,3.247-.156,4.87-.156,1.406,0,3,.06,4.839.156a2.473,2.473,0,0,1,0-1.092A10.085,10.085,0,0,1,601.344,78.5Z"/><path class="d" d="M492.793,55.2l3.891-4.855h-3.593v-.7h4.575v.7L493.784,55.2h3.987v.7h-4.978Z"/><path class="d" d="M499.515,53.8l-.692.491v-.666l.692-.491V49.643h.833v2.892l2-1.4V51.8l-2,1.4v2h3.313v.7h-4.146Z"/><path class="d" d="M505.1,51.54a3.119,3.119,0,0,1,.566-1.047,2.741,2.741,0,0,1,.937-.728,3.282,3.282,0,0,1,2.612,0,2.765,2.765,0,0,1,.938.728,3.117,3.117,0,0,1,.565,1.047,4.107,4.107,0,0,1,0,2.463,3.1,3.1,0,0,1-.565,1.047,2.765,2.765,0,0,1-.938.728,3.271,3.271,0,0,1-2.612,0,2.741,2.741,0,0,1-.937-.728A3.1,3.1,0,0,1,505.1,54a4.128,4.128,0,0,1,0-2.463Zm.767,2.165a2.557,2.557,0,0,0,.385.828,1.979,1.979,0,0,0,.675.592,2.274,2.274,0,0,0,1.964,0,1.97,1.97,0,0,0,.675-.592,2.538,2.538,0,0,0,.386-.828,3.633,3.633,0,0,0,0-1.867,2.547,2.547,0,0,0-.386-.828,1.978,1.978,0,0,0-.675-.591,2.265,2.265,0,0,0-1.964,0,1.987,1.987,0,0,0-.675.591,2.566,2.566,0,0,0-.385.828,3.633,3.633,0,0,0,0,1.867Z"/><path class="d" d="M513.889,50.344H511.8v-.7h5v.7h-2.086V55.9h-.833Z"/><path class="d" d="M517.881,51.54a3.119,3.119,0,0,1,.566-1.047,2.751,2.751,0,0,1,.937-.728,3.285,3.285,0,0,1,2.613,0,2.761,2.761,0,0,1,.937.728,3.119,3.119,0,0,1,.566,1.047,4.128,4.128,0,0,1,0,2.463,3.1,3.1,0,0,1-.566,1.047,2.761,2.761,0,0,1-.937.728,3.274,3.274,0,0,1-2.613,0,2.751,2.751,0,0,1-.937-.728A3.1,3.1,0,0,1,517.881,54a4.128,4.128,0,0,1,0-2.463Zm.767,2.165a2.538,2.538,0,0,0,.386.828,1.97,1.97,0,0,0,.675.592,2.271,2.271,0,0,0,1.963,0,1.969,1.969,0,0,0,.675-.592,2.538,2.538,0,0,0,.386-.828,3.632,3.632,0,0,0,0-1.867,2.547,2.547,0,0,0-.386-.828,1.977,1.977,0,0,0-.675-.591,2.262,2.262,0,0,0-1.963,0,1.978,1.978,0,0,0-.675.591,2.547,2.547,0,0,0-.386.828,3.632,3.632,0,0,0,0,1.867Z"/><path class="d" d="M528.928,49.643h.833V55.9h-.833Z"/><path class="d" d="M532.031,49.643h.886l3.294,5.074h.018V49.643h.789V55.9h-.912l-3.269-5.022h-.017V55.9h-.789Z"/><path class="d" d="M544.9,55.9h-.868L542.6,50.642h-.017L541.137,55.9h-.868l-1.6-6.258h.849l1.228,5.206h.017l1.4-5.206h.9l1.385,5.206h.017l1.271-5.206h.833Z"/><path class="d" d="M548.236,49.643h4.321v.7h-3.488v1.99h3.251v.7h-3.251V55.2h3.515v.7h-4.348Z"/><path class="d" d="M558.087,51.474a1.3,1.3,0,0,0-.486-.977,1.773,1.773,0,0,0-1.065-.3,2.548,2.548,0,0,0-.517.053,1.349,1.349,0,0,0-.452.175.932.932,0,0,0-.316.329,1.023,1.023,0,0,0-.118.512.652.652,0,0,0,.171.469,1.266,1.266,0,0,0,.456.294,3.783,3.783,0,0,0,.644.188q.36.075.736.162t.736.206a2.338,2.338,0,0,1,.64.32,1.531,1.531,0,0,1,.452.513,1.774,1.774,0,0,1-.052,1.621,1.859,1.859,0,0,1-.575.579,2.592,2.592,0,0,1-.784.329,3.717,3.717,0,0,1-.863.1,3.652,3.652,0,0,1-.995-.132,2.419,2.419,0,0,1-.824-.4,1.918,1.918,0,0,1-.561-.688,2.189,2.189,0,0,1-.206-.986h.789a1.416,1.416,0,0,0,.153.679,1.391,1.391,0,0,0,.4.469,1.7,1.7,0,0,0,.578.272,2.675,2.675,0,0,0,.688.087,3.11,3.11,0,0,0,.565-.052,1.644,1.644,0,0,0,.512-.18,1.013,1.013,0,0,0,.369-.346,1.028,1.028,0,0,0,.14-.561.782.782,0,0,0-.171-.526,1.258,1.258,0,0,0-.451-.328,3.431,3.431,0,0,0-.64-.211c-.24-.055-.485-.11-.736-.162s-.5-.115-.736-.188a2.59,2.59,0,0,1-.645-.294,1.443,1.443,0,0,1-.455-.465,1.343,1.343,0,0,1-.171-.71,1.653,1.653,0,0,1,.193-.819,1.68,1.68,0,0,1,.512-.57,2.3,2.3,0,0,1,.728-.333,3.209,3.209,0,0,1,.837-.109,3.333,3.333,0,0,1,.893.114,1.961,1.961,0,0,1,.719.359,1.8,1.8,0,0,1,.491.618,2.156,2.156,0,0,1,.2.889Z"/><path class="d" d="M562.277,50.344h-2.086v-.7H565.2v.7H563.11V55.9h-.833Z"/><path class="d" d="M569.516,53.341V55.9h-.833v-2.56l-2.419-3.7h.99l1.876,2.98,1.831-2.98h.948Z"/><path class="d" d="M577.886,51.527a1.761,1.761,0,0,0-.227-.582,1.5,1.5,0,0,0-.39-.417,1.708,1.708,0,0,0-.521-.25,2.239,2.239,0,0,0-.615-.083,2.033,2.033,0,0,0-.959.21,1.9,1.9,0,0,0-.657.565,2.444,2.444,0,0,0-.382.811,3.621,3.621,0,0,0-.122.947,4.042,4.042,0,0,0,.122,1.012,2.413,2.413,0,0,0,.382.833,1.887,1.887,0,0,0,.661.565,2.051,2.051,0,0,0,.964.21,1.871,1.871,0,0,0,.733-.135,1.674,1.674,0,0,0,.551-.377,1.723,1.723,0,0,0,.365-.575,2.442,2.442,0,0,0,.157-.718h.833a2.859,2.859,0,0,1-.82,1.84,2.615,2.615,0,0,1-1.888.667A2.983,2.983,0,0,1,574.8,55.8a2.544,2.544,0,0,1-.9-.693,2.936,2.936,0,0,1-.539-1.034,4.405,4.405,0,0,1-.18-1.28,4.194,4.194,0,0,1,.193-1.284,3.091,3.091,0,0,1,.565-1.047,2.653,2.653,0,0,1,.925-.706,2.993,2.993,0,0,1,1.279-.258,3.251,3.251,0,0,1,.93.131,2.48,2.48,0,0,1,.779.386,2.149,2.149,0,0,1,.57.635,2.338,2.338,0,0,1,.3.881Z"/><path class="d" d="M583.277,53.341V55.9h-.833v-2.56l-2.419-3.7h.99l1.876,2.98,1.831-2.98h.947Z"/><path class="d" d="M590.428,54.341a2.17,2.17,0,0,1-.092.622,1.438,1.438,0,0,1-.306.547,1.561,1.561,0,0,1-.57.391,2.293,2.293,0,0,1-.881.149,1.646,1.646,0,0,1-1.824-1.823v-.386h.833V54.1a2.663,2.663,0,0,0,.044.5,1.073,1.073,0,0,0,.154.4.723.723,0,0,0,.306.259,1.205,1.205,0,0,0,.5.091.892.892,0,0,0,.784-.306,1.407,1.407,0,0,0,.215-.824V49.643h.833Z"/><path class="d" d="M592.663,49.643h.885l3.3,5.074h.018V49.643h.789V55.9h-.912l-3.269-5.022h-.017V55.9h-.789Z"/><path class="d" d="M599.876,49.643H604.2v.7h-3.488v1.99h3.251v.7h-3.251V55.2h3.514v.7h-4.347Z"/></g></svg>