<?xml version="1.0" encoding="UTF-8"?>
<!DOCTYPE svg PUBLIC "-//W3C//DTD SVG 1.1//EN" "http://www.w3.org/Graphics/SVG/1.1/DTD/svg11.dtd">
<!-- Creator: CorelDRAW 2020 (64-Bit) -->
<svg xmlns="http://www.w3.org/2000/svg" xml:space="preserve" width="1360px" height="820px" version="1.1" style="shape-rendering:geometricPrecision; text-rendering:geometricPrecision; image-rendering:optimizeQuality; fill-rule:evenodd; clip-rule:evenodd"
viewBox="0 0 1073.49 647.81"
 xmlns:xlink="http://www.w3.org/1999/xlink"
 xmlns:xodm="http://www.corel.com/coreldraw/odm/2003">
 <defs>
  <style type="text/css">
   <![CDATA[
    .fil0 {fill:none;fill-rule:nonzero}
    .fil5 {fill:#FADAD2;fill-rule:nonzero}
    .fil3 {fill:#F6B5A8;fill-rule:nonzero}
    .fil4 {fill:#F1907E;fill-rule:nonzero}
    .fil2 {fill:#E74723;fill-rule:nonzero}
    .fil1 {fill:#787B7C;fill-rule:nonzero}
   ]]>
  </style>
 </defs>
 <g id="Warstwa_x0020_1">
  <metadata id="CorelCorpID_0Corel-Layer"/>
  <polygon class="fil0" points="1073.49,647.81 0,647.81 0,0 1073.49,0 "/>
  <path class="fil1" d="M831.63 440.01l30.81 0c4.68,0 8.39,0.1 11.12,0.3 2.73,0.2 4.94,0.65 6.6,1.3 1.66,0.65 2.99,1.69 3.91,3.06 0.93,1.36 1.98,3.24 3.04,5.57l28.88 63.7 23.48 -73.93 30.2 0 -32.35 101.88 -37.06 0c-3.53,0 -5.09,0.05 -6.81,-0.54 -1.72,-0.6 -3.14,-1.58 -4.4,-3.21 -0.56,-0.73 -1.54,-1.93 -2.36,-3.73 -31.94,-70.11 0,0 -31.96,-70.12l-24.63 77.6 -30.81 0 32.34 -101.88z"/>
  <path class="fil1" d="M774.29 440.01c3.36,0 6.27,0.08 8.7,0.22 2.44,0.15 4.56,0.39 6.34,0.69 1.78,0.31 3.38,0.75 4.77,1.3 1.39,0.55 2.69,1.36 3.95,2.22 3.99,2.69 6.52,6.57 7.4,11.76 0.89,5.18 0.22,11.32 -2.01,18.33l-9.69 30.55c-2.13,6.7 -4.54,12.36 -7.19,16.88 -2.65,4.52 -5.77,8.24 -9.31,11.07 -2.17,1.73 -4.36,3.2 -6.5,4.36 -2.14,1.16 -4.58,2.09 -7.28,2.75 -2.69,0.65 -5.87,1.12 -9.51,1.37 -3.64,0.26 -8.07,0.38 -13.23,0.38l-50.03 0c-4.26,0 -7.88,-0.02 -10.81,-0.07 -2.93,-0.05 -5.39,-0.19 -7.35,-0.39 -1.96,-0.19 -3.63,-0.43 -4.97,-0.68 -1.34,-0.26 -2.54,-0.66 -3.6,-1.15 -5.31,-2.45 -8.59,-6.64 -9.8,-12.6 -1.21,-5.96 -0.38,-13.47 2.5,-22.53l8.39 -26.43c2.13,-6.72 4.54,-12.3 7.22,-16.72 2.67,-4.43 6.02,-8.28 9.99,-11.54 2.21,-1.81 4.44,-3.39 6.66,-4.66 2.23,-1.26 4.7,-2.3 7.38,-3.05 2.67,-0.76 5.67,-1.3 8.97,-1.61 3.3,-0.3 7.14,-0.45 11.51,-0.45l57.5 0zm-31.4 77.29c3.36,0 6.21,-0.25 8.55,-0.76 2.35,-0.51 4.34,-1.39 5.94,-2.6 1.6,-1.21 3.02,-2.94 4.22,-5.12 1.19,-2.18 2.33,-4.96 3.4,-8.32l6.26 -19.71c0.97,-3.05 1.5,-5.6 1.59,-7.64 0.08,-2.03 -0.38,-3.67 -1.35,-4.88 -0.98,-1.22 -2.58,-2.1 -4.74,-2.6 -2.17,-0.5 -5.02,-0.77 -8.46,-0.77l-40.87 0c-3.14,0 -5.65,0.24 -7.47,0.69 -1.81,0.45 -3.64,1.24 -5.4,2.37 -2.32,1.5 -4.14,3.27 -5.46,5.19 -1.32,1.93 -2.56,4.7 -3.69,8.25l-6.16 19.4c-0.83,2.64 -1.19,5.23 -1.07,7.72 0.11,2.48 0.62,4.54 1.59,6.03 1.2,1.85 5.79,2.75 13.62,2.75l39.5 0z"/>
  <g id="_1639989436800">
   <polygon class="fil1" points="543.38,440.01 665.24,440.01 657.19,465.36 535.33,465.36 "/>
   <polygon class="fil1" points="580.8,466.74 609.14,474.53 588.05,541.89 556.94,541.89 "/>
  </g>
  <path class="fil1" d="M488.47 440.01l-25.16 79.28 78.32 0 -7.18 22.6 -78.32 0c-3.96,0 -7.31,-0.12 -10.02,-0.38 -2.72,-0.25 -4.98,-0.66 -6.78,-1.22 -1.81,-0.56 -3.27,-1.32 -4.38,-2.29 -1.12,-0.97 -2.06,-2.17 -2.83,-3.59 -1.08,-2.04 -1.56,-4.38 -1.43,-7.03 0.13,-2.65 0.9,-6.21 2.33,-10.69l24.34 -76.68 31.11 0z"/>
  <path class="fil2" d="M349.69 440.01l-17.41 54.84c-0.97,3.05 -1.7,5.42 -2.18,7.1 -0.48,1.68 -0.81,3.03 -0.98,4.05 -0.17,1.02 -0.19,1.88 -0.06,2.59 0.13,0.72 0.35,2.17 0.74,3.19 0.68,2.04 1.97,2.85 3.81,3.61 1.84,0.76 4.8,1.15 8.87,1.15l29.74 0c1.42,0 2.99,-0.13 4.69,-0.39 1.71,-0.25 3.35,-0.61 4.92,-1.07 1.57,-0.45 2.97,-0.94 4.2,-1.45 1.23,-0.51 2.19,-1.07 2.89,-1.68 0.6,-0.61 1.1,-1.12 1.48,-1.52 0.38,-0.41 0.8,-1.07 1.24,-1.99 0.44,-0.92 0.94,-2.24 1.49,-3.97 0.55,-1.73 1.33,-4.18 2.33,-7.33l18.14 -57.13 29.58 0 -19.49 61.4c-1.45,4.59 -2.85,8.51 -4.19,11.76 -1.34,3.27 -2.78,6.12 -4.32,8.56 -1.54,2.44 -3.22,4.53 -5.04,6.26 -1.82,1.73 -3.94,3.36 -6.35,4.89 -4.7,2.95 -10.25,5.2 -16.63,6.72 -6.38,1.53 -13.39,2.29 -21.01,2.29l-33.4 0c-20.24,0 -32,-4.43 -35.29,-13.29 -1.23,-3.15 -1.59,-7.46 -1.08,-12.9 0.51,-5.45 1.83,-11.54 3.96,-18.26l18.24 -57.43 31.11 0z"/>
  <path class="fil1" d="M171.55 440.01c7.73,0 12.7,1.63 14.92,4.88 0.52,0.61 0.91,1.15 1.17,1.61 0.26,0.46 0.54,1.17 0.85,2.14 0.3,0.96 0.61,2.31 0.92,4.04 0.32,1.74 0.79,4.18 1.41,7.34l10.79 46.74 42.95 -50.26c0.8,-0.91 1.82,-2.03 3.05,-3.36 1.23,-1.32 2.52,-2.65 3.85,-3.97 1.34,-1.32 2.57,-2.49 3.71,-3.51 1.14,-1.02 2.04,-1.78 2.71,-2.29 2.95,-2.24 8.44,-3.36 16.47,-3.36l30.2 0 -32.35 101.88 -28.21 0 24.2 -76.22 -65.84 76.22 -23.03 0 -19.41 -75.31 -23.91 75.31 -30.81 0 32.35 -101.88 34.01 0z"/>
  <path class="fil3" d="M659.08 209.1l71.38 -29.35c6.86,-2.9 14.78,-0.27 18.62,6.17l18.62 31.26c4.71,7.9 1.41,18.2 -6.98,21.82l-60.87 25.41c-13.33,4.96 -27.31,2.51 -31.13,-4.07l-16.8 -29.55c-4.59,-7.93 -1.22,-18.14 7.16,-21.69z"/>
  <path class="fil3" d="M687.85 298.03l15.06 19.61c3.89,6.23 11.65,8.72 18.38,5.91l66.78 -27.88c8.63,-3.61 10.66,-12.57 6.92,-22.22l-10.27 -20.61c-3.85,-6.1 -11.42,-8.6 -18.08,-5.97l-71.57 28.88c-8.79,3.47 -12.27,14.21 -7.22,22.28z"/>
  <path class="fil4" d="M577.23 336.28c3.08,3.29 10.45,10.97 18.18,16.75 1.7,1.28 4.08,2.96 7.54,3.88 1.42,0.38 4.62,1.05 9.28,0.23 6.9,-1.22 31.49,-8.29 64.41,-18.94 9.73,-3.04 13.7,-14.81 7.85,-23.25l-13.08 -14.89c-3.61,-5.19 -10.02,-7.57 -16.07,-5.95l-71.69 19.07c-5.38,1.09 -9.58,5.26 -10.61,10.52 -1.43,7.21 3.91,12.32 4.19,12.58z"/>
  <path class="fil4" d="M515.78 368.08c-3.2,0.31 -8.34,1.13 -14.27,-0.43 -6.23,-1.63 -9.99,-4.69 -16.29,-9.83 0,0 -7.54,-6.14 -13.8,-16.36 -1.15,-1.88 -2.47,-4.31 -1.77,-6.73 0.72,-2.51 3.06,-4.46 6.41,-4.9 18.93,-2.48 37.84,-5.06 56.67,-8.23 14.9,-2.51 25.37,5.92 35.14,15.59 2.99,2.96 5.77,6.15 8.84,9.02 2.48,2.33 5.24,4.73 4.28,8.37 -1.02,3.89 -4.68,5.61 -8.25,6.2 -7.5,1.26 -11.1,1.94 -21.9,3.14 -7.89,0.87 -14.22,1.64 -20.71,2.36 -6.07,0.68 -10.85,1.37 -14.35,1.8z"/>
  <path class="fil4" d="M535.72 269.49l13.84 27.09c4.03,7.89 12.95,11.86 21.41,9.51l73.83 -20.48c7.68,-2.13 11.3,-11.05 7.3,-18.04l-17.42 -30.45c-4.39,-7.68 -13.49,-11.21 -21.83,-8.46l-69.93 23.07c-7.29,2.4 -10.72,10.85 -7.2,17.76z"/>
  <path class="fil5" d="M770.85 154.34l93.17 -47.62c7.45,-3.79 16.52,-0.69 20.19,6.89l13.87 48.79c3.74,7.72 0.41,17.04 -7.33,20.55l-84.99 38.53c-7.07,3.2 -15.4,0.42 -19.2,-6.42l-22.05 -39.7c-4.2,-7.56 -1.3,-17.13 6.34,-21.02z"/>
  <g id="_1639989457584">
   <path class="fil2" d="M469.1 368.59c-12.9,-1.39 -25.79,-3.33 -28.12,-3.67 -2.39,-0.36 -5.93,-0.84 -10.8,-1.97 0,0 -3.76,-0.87 -7.09,-1.88 0,0 -16,-5.9 -39.7,-31.26 -0.47,-0.49 -1.42,-1.55 -1.56,-3.07 0,0 -0.12,-1.37 0.63,-2.71 1.74,-3.11 13.97,0.68 29.26,2.5 2.27,0.27 10.99,1.28 21.84,2.96 2.52,0.4 4.24,0.68 6.53,1.37 7.04,2.13 11.76,5.74 14.63,7.98 3.61,2.82 5.93,5.38 10.58,10.49 3.55,3.91 2.14,2.8 5.4,6.38 4,4.4 6.81,6.82 6.33,9.63 -0.04,0.25 -0.17,0.95 -0.67,1.63 -1.63,2.19 -5.4,1.82 -7.26,1.62z"/>
   <path class="fil2" d="M476.44 323.46c-3.62,-0.02 -9.97,-0.61 -16.04,-4.62 -5.64,-3.73 -9.24,-8.15 -12.16,-15.9 -2.7,-7.18 -5.4,-14.37 -8.1,-21.54 -0.4,-2.04 -0.87,-6.07 1.39,-9.24 2.27,-3.19 6.17,-3.96 8.77,-4.29 16.95,-2.16 33.93,-4.05 50.85,-6.42 11.6,-1.62 19.89,2.61 25.2,13.05 3.84,7.55 7.93,14.98 11.35,22.72 3.63,8.19 2.15,10.91 1.54,12.3 -2.43,5.47 -9.62,6.82 -11.31,7.1 -17.16,2.28 -34.33,4.56 -51.49,6.84z"/>
   <path class="fil2" d="M375.53 265.29c12.49,1.25 24.98,2.46 37.46,3.78 9.28,0.98 15.15,6.48 18.6,14.94 3.42,8.38 6.73,16.81 10.11,25.21 3.99,9.97 -0.34,16.55 -11.16,15.34 -13.79,-1.53 -27.62,-3.54 -41.12,-6.73 -8.59,-2.03 -15.29,-7.83 -17.87,-17.31 -2.06,-7.58 -4.88,-14.96 -6.75,-22.58 -2.17,-8.84 1.84,-13.38 10.73,-12.65z"/>
   <path class="fil2" d="M326.4 240.78l21.55 16.57c4.09,3.14 6.85,7.75 7.7,12.88l4.38 26.36c0.79,4.74 -4.17,8.32 -8.34,6.01l-24.21 -13.39c-5.68,-3.15 -9.28,-9.11 -9.46,-15.67l-0.75 -28.01c-0.12,-4.83 5.33,-7.67 9.13,-4.75z"/>
   <path class="fil2" d="M311.84 232.63l0.86 33.39c0.05,2.12 -2.31,3.02 -3.36,1.28l-9.02 -14.98c-1.82,-3.03 -2.77,-6.65 -2.72,-10.34l0.57 -41.7c0.03,-2.3 2.76,-2.92 3.54,-0.8l7.97 21.72c1.33,3.62 2.07,7.5 2.16,11.43z"/>
   <path class="fil2" d="M328.91 300.91l30.53 32.54c1.9,2.2 4.3,3.9 7,4.94l27.54 14.09c1.99,0.77 3.69,-1.63 2.35,-3.29 -6.27,-5.57 -9.4,-8.5 -16.12,-16.28 -4.35,-5.03 -8.21,-9.97 -11.61,-14.69 -0.84,-1.03 -2.01,-2.22 -3.6,-3.27 -0.48,-0.33 -0.99,-0.62 -1.51,-0.89l-32.08 -16.41c-2.04,-1.04 -4,1.52 -2.5,3.26z"/>
   <path class="fil2" d="M431.25 367.07l46.83 5.12c3.62,0.26 7.2,0.93 10.68,1.99l33.31 10.18c2.32,0.71 1.82,4.18 -0.61,4.18l-30.08 0c-5.5,0 -10.95,-0.94 -16.14,-2.77l-44.83 -14.56c-2.33,-0.82 -1.62,-4.32 0.84,-4.14z"/>
  </g>
  <path class="fil3" d="M518.51 378.32l28.57 9.26c3.81,1.23 7.84,1.59 11.79,1.03l59.58 -8.31c2.56,-0.35 2.98,-3.94 0.57,-4.89l-22.86 -8.98c-4.19,-1.65 -8.71,-2.2 -13.17,-1.6l-64.04 8.55c-2.66,0.35 -2.99,4.11 -0.44,4.94z"/>
  <path class="fil3" d="M621.82 366.4l15.63 5.51c4.79,1.69 10.1,1.78 14.96,0.26l47.42 -14.87c3.25,-1.01 3.43,-5.05 0.28,-6.3l-10.47 -4.17c-4.68,-1.86 -9.94,-2.17 -14.84,-0.86l-52.68 14.02c-3.47,0.92 -3.67,5.22 -0.3,6.41z"/>
 </g>
</svg>
