<?xml version="1.0" encoding="UTF-8" standalone="no"?>
<!DOCTYPE svg PUBLIC "-//W3C//DTD SVG 1.1//EN" "http://www.w3.org/Graphics/SVG/1.1/DTD/svg11.dtd">
<svg width="100%" height="100%" viewBox="0 0 297 122" version="1.1" xmlns="http://www.w3.org/2000/svg" xmlns:xlink="http://www.w3.org/1999/xlink" xml:space="preserve" xmlns:serif="http://www.serif.com/" style="fill-rule:evenodd;clip-rule:evenodd;stroke-linejoin:round;stroke-miterlimit:2;">
    <g transform="matrix(1,0,0,1,-2.74052,-89.9743)">
        <g transform="matrix(1,0,0,1,385.176,363.053)">
            <g transform="matrix(0.999861,0.0166781,-0.0166781,0.999861,-381.069,-282.116)">
                <path d="M289.424,10.08C290.016,10.08 290.432,9.973 290.672,9.76C290.912,9.541 291.032,9.229 291.032,8.824C291.032,8.627 291.005,8.453 290.952,8.304C290.904,8.155 290.821,8.032 290.704,7.936C290.592,7.84 290.44,7.768 290.248,7.72C290.061,7.672 289.829,7.648 289.552,7.648L288.504,7.648L288.504,10.08L289.424,10.08ZM289.552,6.688C290.475,6.688 291.155,6.856 291.592,7.192C292.035,7.523 292.256,8.013 292.256,8.664C292.256,9.165 292.115,9.592 291.832,9.944C291.549,10.296 291.125,10.536 290.56,10.664C290.651,10.723 290.728,10.792 290.792,10.872C290.861,10.952 290.925,11.045 290.984,11.152L292.808,13.824L291.616,13.824C291.44,13.824 291.312,13.757 291.232,13.624L289.616,11.208C289.568,11.139 289.509,11.085 289.44,11.048C289.376,11.011 289.275,10.992 289.136,10.992L288.504,10.992L288.504,13.824L287.256,13.824L287.256,6.688L289.552,6.688ZM289.648,15.392C290.117,15.392 290.568,15.333 291,15.216C291.437,15.093 291.843,14.923 292.216,14.704C292.595,14.48 292.936,14.213 293.24,13.904C293.549,13.595 293.813,13.251 294.032,12.872C294.251,12.488 294.419,12.077 294.536,11.64C294.659,11.203 294.72,10.747 294.72,10.272C294.72,9.557 294.587,8.888 294.32,8.264C294.059,7.635 293.699,7.088 293.24,6.624C292.787,6.155 292.251,5.787 291.632,5.52C291.013,5.248 290.352,5.112 289.648,5.112C289.179,5.112 288.728,5.173 288.296,5.296C287.864,5.419 287.461,5.592 287.088,5.816C286.72,6.035 286.381,6.301 286.072,6.616C285.768,6.931 285.507,7.28 285.288,7.664C285.075,8.043 284.909,8.453 284.792,8.896C284.675,9.339 284.616,9.797 284.616,10.272C284.616,10.747 284.675,11.203 284.792,11.64C284.909,12.077 285.075,12.488 285.288,12.872C285.507,13.251 285.768,13.595 286.072,13.904C286.381,14.213 286.72,14.48 287.088,14.704C287.461,14.923 287.864,15.093 288.296,15.216C288.728,15.333 289.179,15.392 289.648,15.392ZM289.648,4.416C290.187,4.416 290.704,4.485 291.2,4.624C291.701,4.763 292.168,4.96 292.6,5.216C293.032,5.472 293.427,5.779 293.784,6.136C294.141,6.488 294.445,6.883 294.696,7.32C294.952,7.752 295.149,8.219 295.288,8.72C295.427,9.216 295.496,9.733 295.496,10.272C295.496,10.805 295.427,11.323 295.288,11.824C295.149,12.32 294.952,12.784 294.696,13.216C294.445,13.648 294.141,14.043 293.784,14.4C293.427,14.752 293.032,15.056 292.6,15.312C292.168,15.568 291.701,15.765 291.2,15.904C290.704,16.043 290.187,16.112 289.648,16.112C289.109,16.112 288.592,16.043 288.096,15.904C287.6,15.765 287.136,15.568 286.704,15.312C286.272,15.056 285.877,14.752 285.52,14.4C285.168,14.043 284.864,13.648 284.608,13.216C284.352,12.784 284.155,12.32 284.016,11.824C283.877,11.328 283.808,10.811 283.808,10.272C283.808,9.733 283.877,9.216 284.016,8.72C284.155,8.219 284.352,7.752 284.608,7.32C284.864,6.883 285.168,6.488 285.52,6.136C285.877,5.779 286.272,5.472 286.704,5.216C287.136,4.96 287.6,4.763 288.096,4.624C288.592,4.485 289.109,4.416 289.648,4.416Z" style="fill:rgb(226,198,47);fill-rule:nonzero;"/>
            </g>
        </g>
        <g transform="matrix(1,0,0,1,385.176,363.053)">
            <g transform="matrix(1,0,0,1,-385.176,-363.053)">
                <path d="M267.029,130.169L253.375,124.186C247.009,121.355 245.708,118.596 245.673,115.051C245.652,112.964 245.604,108.08 255.633,107.981L284.51,107.695L284.335,89.974L255.458,90.26C236.17,90.452 225.198,99.562 225.354,115.252C225.468,126.745 231.435,135.125 243.084,140.156L257.445,146.365C266.568,150.29 267.362,153.473 267.388,156.143C267.408,158.118 267.467,164.127 255.281,164.248L224.931,164.549L225.106,182.162L255.793,181.857C276.234,181.655 287.863,172.165 287.701,155.825C287.582,143.801 281.785,136.605 267.029,130.169ZM30.511,164.411C25.292,164.463 23.393,159.689 23.352,155.587L22.974,117.347C22.91,110.955 25.741,108.196 32.448,108.129L63.595,107.82L63.419,90.105L31.935,90.417C13.773,90.597 2.587,100.425 2.742,116.075L3.143,156.575C3.293,171.72 14.434,182.186 30.235,182.029L65.455,181.68L65.28,164.066L30.511,164.411ZM138.323,90.182L108.544,136.239L139.229,181.693L112.892,181.954L78.552,136.537L111.986,90.443L138.323,90.182ZM207.219,90.182L177.446,136.239L208.125,181.693L181.795,181.954L147.45,136.537L180.889,90.443L207.219,90.182Z" style="fill:rgb(226,198,47);"/>
                <clipPath id="_clip1">
                    <path d="M267.029,130.169L253.375,124.186C247.009,121.355 245.708,118.596 245.673,115.051C245.652,112.964 245.604,108.08 255.633,107.981L284.51,107.695L284.335,89.974L255.458,90.26C236.17,90.452 225.198,99.562 225.354,115.252C225.468,126.745 231.435,135.125 243.084,140.156L257.445,146.365C266.568,150.29 267.362,153.473 267.388,156.143C267.408,158.118 267.467,164.127 255.281,164.248L224.931,164.549L225.106,182.162L255.793,181.857C276.234,181.655 287.863,172.165 287.701,155.825C287.582,143.801 281.785,136.605 267.029,130.169ZM30.511,164.411C25.292,164.463 23.393,159.689 23.352,155.587L22.974,117.347C22.91,110.955 25.741,108.196 32.448,108.129L63.595,107.82L63.419,90.105L31.935,90.417C13.773,90.597 2.587,100.425 2.742,116.075L3.143,156.575C3.293,171.72 14.434,182.186 30.235,182.029L65.455,181.68L65.28,164.066L30.511,164.411ZM138.323,90.182L108.544,136.239L139.229,181.693L112.892,181.954L78.552,136.537L111.986,90.443L138.323,90.182ZM207.219,90.182L177.446,136.239L208.125,181.693L181.795,181.954L147.45,136.537L180.889,90.443L207.219,90.182Z"/>
                </clipPath>
                <g clip-path="url(#_clip1)">
                    <g transform="matrix(0.999861,0.0166781,-0.0166781,0.999861,3.36566,82.4759)">
                        <path d="M126.241,226.371C247.524,225.169 345.436,182.979 344.933,132.136C344.429,81.294 245.702,41.053 124.418,42.255C3.134,43.457 -94.778,85.647 -94.274,136.489C-93.771,187.331 4.957,227.573 126.241,226.371Z" style="fill:rgb(188,163,34);fill-rule:nonzero;"/>
                    </g>
                </g>
            </g>
        </g>
        <g transform="matrix(1,0,0,1,385.176,363.053)">
            <g transform="matrix(1,0,0,1,-383.808,-280.196)">
                <path d="M15.398,123.038C15.485,123.037 15.562,123.072 15.629,123.143L16.265,123.817C15.789,124.374 15.216,124.809 14.534,125.128C13.852,125.447 13.031,125.608 12.06,125.618C11.221,125.626 10.458,125.485 9.77,125.206C9.082,124.921 8.496,124.518 8.005,123.996C7.514,123.479 7.135,122.848 6.856,122.115C6.583,121.386 6.442,120.579 6.434,119.7C6.425,118.815 6.56,118.005 6.829,117.266C7.097,116.527 7.48,115.894 7.981,115.362C8.481,114.825 9.075,114.41 9.773,114.112C10.475,113.813 11.251,113.662 12.095,113.654C12.933,113.646 13.665,113.771 14.302,114.031C14.943,114.291 15.509,114.648 15.999,115.099L15.48,115.835C15.45,115.887 15.409,115.933 15.359,115.969C15.303,116.006 15.237,116.027 15.15,116.028C15.052,116.029 14.929,115.974 14.79,115.873C14.646,115.767 14.461,115.646 14.229,115.515C13.998,115.389 13.716,115.275 13.372,115.171C13.029,115.072 12.604,115.02 12.103,115.025C11.5,115.031 10.949,115.143 10.45,115.353C9.951,115.568 9.525,115.879 9.166,116.281C8.807,116.679 8.53,117.167 8.331,117.742C8.138,118.317 8.047,118.962 8.054,119.683C8.061,120.41 8.17,121.063 8.385,121.629C8.6,122.2 8.891,122.678 9.258,123.068C9.62,123.458 10.052,123.756 10.545,123.96C11.043,124.16 11.571,124.257 12.148,124.251C12.496,124.248 12.807,124.224 13.088,124.186C13.369,124.142 13.624,124.073 13.863,123.984C14.098,123.894 14.316,123.78 14.52,123.645C14.723,123.515 14.92,123.349 15.123,123.163C15.214,123.08 15.306,123.039 15.398,123.038Z" style="fill:rgb(226,198,47);fill-rule:nonzero;"/>
            </g>
        </g>
        <g transform="matrix(1,0,0,1,385.176,363.053)">
            <g transform="matrix(1,0,0,1,-383.808,-280.088)">
                <path d="M20.975,118.059C20.275,118.066 19.719,118.276 19.325,118.684C18.925,119.092 18.68,119.657 18.59,120.379L23.114,120.334C23.11,119.997 23.056,119.69 22.956,119.405C22.862,119.13 22.721,118.891 22.535,118.683C22.354,118.485 22.128,118.329 21.866,118.219C21.604,118.109 21.307,118.056 20.975,118.059ZM20.934,116.99C21.424,116.986 21.885,117.068 22.311,117.227C22.732,117.387 23.102,117.624 23.412,117.933C23.722,118.241 23.966,118.628 24.144,119.086C24.323,119.545 24.415,120.066 24.421,120.654C24.423,120.884 24.399,121.038 24.349,121.115C24.303,121.187 24.212,121.229 24.074,121.23L18.548,121.285C18.563,121.812 18.639,122.261 18.776,122.648C18.908,123.036 19.095,123.351 19.322,123.61C19.555,123.863 19.828,124.06 20.146,124.179C20.464,124.304 20.817,124.367 21.206,124.363C21.574,124.36 21.885,124.311 22.15,124.226C22.41,124.137 22.639,124.047 22.828,123.948C23.021,123.849 23.178,123.75 23.305,123.672C23.432,123.579 23.539,123.537 23.631,123.536C23.754,123.535 23.846,123.58 23.914,123.672L24.323,124.199C24.151,124.416 23.933,124.612 23.689,124.773C23.436,124.94 23.171,125.075 22.886,125.18C22.601,125.285 22.305,125.365 22.004,125.419C21.698,125.479 21.396,125.507 21.1,125.51C20.527,125.516 20,125.419 19.517,125.234C19.035,125.045 18.613,124.762 18.256,124.398C17.905,124.028 17.625,123.565 17.425,123.02C17.22,122.474 17.122,121.841 17.115,121.125C17.109,120.552 17.191,120.009 17.359,119.506C17.533,119.004 17.785,118.571 18.113,118.2C18.437,117.828 18.843,117.533 19.316,117.324C19.795,117.104 20.33,116.996 20.934,116.99Z" style="fill:rgb(226,198,47);fill-rule:nonzero;"/>
            </g>
        </g>
        <g transform="matrix(1,0,0,1,385.176,363.053)">
            <g transform="matrix(1,0,0,1,-383.808,-279.927)">
                <path d="M26.261,125.35L26.179,117.08L27.053,117.071C27.258,117.069 27.387,117.165 27.44,117.364L27.561,118.263C27.92,117.866 28.316,117.54 28.763,117.29C29.205,117.04 29.715,116.912 30.298,116.906C30.753,116.902 31.152,116.969 31.496,117.119C31.846,117.264 32.134,117.476 32.372,117.75C32.605,118.019 32.782,118.35 32.908,118.737C33.03,119.119 33.095,119.543 33.1,120.014L33.152,125.282L31.69,125.296L31.638,120.028C31.632,119.404 31.484,118.92 31.194,118.575C30.904,118.23 30.468,118.066 29.89,118.071C29.456,118.076 29.048,118.182 28.677,118.395C28.306,118.604 27.966,118.888 27.663,119.244L27.723,125.335L26.261,125.35Z" style="fill:rgb(226,198,47);fill-rule:nonzero;"/>
            </g>
        </g>
        <g transform="matrix(1,0,0,1,385.176,363.053)">
            <g transform="matrix(1,0,0,1,-383.808,-279.935)">
                <path d="M37.8,125.357C37.146,125.364 36.643,125.19 36.286,124.825C35.93,124.465 35.751,123.94 35.744,123.255L35.694,118.192L34.702,118.202C34.61,118.203 34.539,118.178 34.477,118.127C34.42,118.077 34.389,117.995 34.388,117.888L34.382,117.305L35.735,117.122L36.042,114.562C36.056,114.485 36.096,114.413 36.152,114.361C36.208,114.31 36.284,114.283 36.376,114.282L37.112,114.275L37.141,117.124L39.528,117.1L39.538,118.154L37.151,118.177L37.2,123.143C37.204,123.496 37.288,123.751 37.458,123.918C37.629,124.085 37.849,124.165 38.115,124.162C38.269,124.161 38.396,124.139 38.508,124.097C38.62,124.055 38.717,124.013 38.798,123.961C38.88,123.909 38.946,123.868 39.006,123.821C39.062,123.785 39.113,123.764 39.154,123.763C39.231,123.763 39.298,123.808 39.36,123.899L39.791,124.591C39.543,124.823 39.243,125.011 38.892,125.147C38.54,125.283 38.173,125.354 37.8,125.357Z" style="fill:rgb(226,198,47);fill-rule:nonzero;"/>
            </g>
        </g>
        <g transform="matrix(1,0,0,1,385.176,363.053)">
            <g transform="matrix(1,0,0,1,-383.808,-279.778)">
                <path d="M41.131,125.201L41.049,116.931L41.882,116.923C42.035,116.921 42.148,116.945 42.21,117.006C42.267,117.067 42.309,117.169 42.331,117.317L42.435,118.574C42.69,118.004 43.008,117.556 43.388,117.235C43.768,116.914 44.237,116.751 44.784,116.745C44.958,116.744 45.127,116.757 45.285,116.797C45.449,116.831 45.593,116.891 45.717,116.972L45.625,118.057C45.591,118.195 45.51,118.268 45.382,118.269C45.305,118.27 45.192,118.25 45.044,118.221C44.9,118.187 44.731,118.173 44.542,118.175C44.287,118.177 44.052,118.221 43.843,118.299C43.64,118.383 43.457,118.498 43.3,118.653C43.138,118.803 43.001,118.983 42.876,119.204C42.75,119.425 42.64,119.677 42.541,119.959L42.592,125.186L41.131,125.201Z" style="fill:rgb(226,198,47);fill-rule:nonzero;"/>
            </g>
        </g>
        <g transform="matrix(1,0,0,1,385.176,363.053)">
            <g transform="matrix(1,0,0,1,-383.808,-279.826)">
                <path d="M48.342,116.858L48.395,122.131C48.401,122.76 48.549,123.239 48.839,123.584C49.128,123.919 49.564,124.088 50.152,124.083C50.576,124.078 50.974,123.977 51.35,123.774C51.722,123.566 52.066,123.281 52.375,122.92L52.314,116.819L53.771,116.804L53.853,125.074L52.989,125.083C52.78,125.085 52.651,124.989 52.593,124.79L52.471,123.896C52.117,124.298 51.717,124.625 51.269,124.869C50.827,125.119 50.317,125.242 49.739,125.248C49.289,125.252 48.89,125.185 48.541,125.035C48.192,124.89 47.904,124.683 47.666,124.409C47.428,124.14 47.251,123.815 47.129,123.427C47.008,123.04 46.942,122.616 46.938,122.145L46.886,116.872L48.342,116.858Z" style="fill:rgb(226,198,47);fill-rule:nonzero;"/>
            </g>
        </g>
        <g transform="matrix(1,0,0,1,385.176,363.053)">
            <g transform="matrix(1,0,0,1,-383.808,-279.631)">
                <path d="M56.175,125.054L56.093,116.784L56.967,116.775C57.172,116.773 57.301,116.869 57.354,117.068L57.469,117.921C57.767,117.539 58.107,117.229 58.488,116.985C58.864,116.746 59.307,116.619 59.808,116.614C60.36,116.608 60.812,116.757 61.162,117.066C61.508,117.374 61.763,117.791 61.921,118.317C62.041,118.014 62.186,117.751 62.373,117.535C62.56,117.318 62.768,117.137 63.002,116.991C63.236,116.846 63.485,116.741 63.745,116.672C64.01,116.603 64.276,116.57 64.547,116.567C64.981,116.563 65.371,116.625 65.714,116.76C66.058,116.895 66.347,117.101 66.584,117.36C66.822,117.629 67.009,117.954 67.136,118.342C67.268,118.729 67.333,119.173 67.338,119.675L67.39,124.942L65.928,124.957L65.876,119.689C65.87,119.04 65.722,118.555 65.437,118.22C65.153,117.886 64.742,117.726 64.206,117.731C63.97,117.734 63.741,117.777 63.527,117.861C63.313,117.95 63.125,118.075 62.963,118.24C62.801,118.405 62.676,118.611 62.586,118.862C62.491,119.109 62.443,119.396 62.446,119.723L62.498,124.991L61.042,125.005L60.989,119.738C60.983,119.073 60.845,118.583 60.571,118.258C60.302,117.929 59.912,117.774 59.401,117.779C59.043,117.783 58.711,117.883 58.407,118.075C58.107,118.273 57.828,118.536 57.576,118.871L57.637,125.039L56.175,125.054Z" style="fill:rgb(226,198,47);fill-rule:nonzero;"/>
            </g>
        </g>
        <g transform="matrix(1,0,0,1,385.176,363.053)">
            <g transform="matrix(1,0,0,1,-383.808,-279.455)">
                <path d="M75.613,118.285L76.211,118.279C76.415,118.277 76.584,118.25 76.706,118.197C76.828,118.145 76.945,118.052 77.046,117.928L80.897,113.481C81.003,113.337 81.115,113.238 81.237,113.186C81.354,113.129 81.502,113.096 81.676,113.095L83.015,113.081L78.608,118.168C78.501,118.297 78.395,118.406 78.299,118.489C78.198,118.577 78.091,118.649 77.974,118.702C78.123,118.751 78.256,118.821 78.38,118.917C78.498,119.013 78.617,119.13 78.736,119.282L83.438,124.785L82.068,124.799C81.966,124.8 81.879,124.795 81.802,124.781C81.73,124.766 81.663,124.746 81.612,124.716C81.555,124.686 81.509,124.651 81.468,124.61C81.426,124.57 81.385,124.519 81.349,124.468L77.269,119.864C77.161,119.727 77.037,119.631 76.914,119.576C76.791,119.516 76.601,119.498 76.341,119.5L75.625,119.507L75.678,124.862L74.104,124.878L73.988,113.171L75.562,113.155L75.613,118.285Z" style="fill:rgb(226,198,47);fill-rule:nonzero;"/>
            </g>
        </g>
        <g transform="matrix(1,0,0,1,385.176,363.053)">
            <g transform="matrix(1,0,0,1,-383.808,-279.457)">
                <path d="M89.321,117.815C89.256,117.933 89.154,117.996 89.021,117.997C88.939,117.998 88.847,117.968 88.739,117.908C88.636,117.852 88.513,117.787 88.359,117.717C88.21,117.642 88.03,117.577 87.825,117.513C87.615,117.453 87.369,117.425 87.088,117.428C86.843,117.43 86.623,117.463 86.43,117.526C86.231,117.595 86.068,117.678 85.926,117.792C85.789,117.901 85.688,118.03 85.613,118.174C85.543,118.318 85.509,118.477 85.51,118.645C85.512,118.855 85.576,119.034 85.7,119.176C85.819,119.312 85.983,119.434 86.184,119.539C86.389,119.639 86.615,119.724 86.877,119.803C87.133,119.877 87.394,119.962 87.666,120.051C87.933,120.135 88.2,120.235 88.457,120.34C88.713,120.445 88.945,120.581 89.146,120.742C89.347,120.899 89.512,121.102 89.637,121.336C89.762,121.57 89.826,121.856 89.83,122.188C89.833,122.567 89.765,122.92 89.636,123.249C89.501,123.572 89.304,123.856 89.041,124.094C88.777,124.331 88.452,124.524 88.065,124.666C87.683,124.803 87.234,124.874 86.728,124.879C86.155,124.884 85.628,124.797 85.161,124.613C84.688,124.433 84.292,124.197 83.962,123.903L84.299,123.343C84.34,123.276 84.39,123.219 84.451,123.183C84.512,123.141 84.589,123.12 84.681,123.119C84.778,123.118 84.88,123.158 84.988,123.234C85.102,123.304 85.23,123.39 85.39,123.48C85.544,123.576 85.734,123.656 85.96,123.73C86.18,123.805 86.462,123.838 86.794,123.835C87.075,123.832 87.32,123.794 87.534,123.715C87.743,123.641 87.921,123.537 88.058,123.413C88.205,123.289 88.305,123.144 88.37,122.98C88.435,122.811 88.469,122.642 88.467,122.457C88.465,122.227 88.402,122.039 88.278,121.886C88.153,121.739 87.994,121.613 87.788,121.508C87.588,121.402 87.357,121.312 87.095,121.238C86.839,121.164 86.572,121.085 86.301,120.996C86.034,120.911 85.767,120.817 85.505,120.707C85.249,120.597 85.017,120.461 84.816,120.294C84.61,120.127 84.449,119.919 84.324,119.67C84.199,119.431 84.135,119.125 84.131,118.772C84.128,118.455 84.187,118.152 84.317,117.859C84.447,117.567 84.633,117.309 84.882,117.087C85.13,116.864 85.435,116.682 85.796,116.551C86.158,116.414 86.577,116.349 87.047,116.344C87.589,116.339 88.08,116.416 88.511,116.585C88.948,116.755 89.323,116.986 89.643,117.28L89.321,117.815Z" style="fill:rgb(226,198,47);fill-rule:nonzero;"/>
            </g>
        </g>
        <g transform="matrix(1,0,0,1,385.176,363.053)">
            <g transform="matrix(1,0,0,1,-383.808,-279.283)">
                <path d="M97.298,116.992C97.299,117.099 97.285,117.196 97.25,117.294C97.215,117.391 97.165,117.479 97.109,117.551L92.685,123.554L97.209,123.509L97.221,124.644L90.989,124.706L90.983,124.102C90.983,124.031 90.997,123.949 91.032,123.851C91.067,123.759 91.112,123.666 91.177,123.579L95.621,117.53L91.174,117.574L91.163,116.434L97.292,116.373L97.298,116.992Z" style="fill:rgb(226,198,47);fill-rule:nonzero;"/>
            </g>
        </g>
        <g transform="matrix(1,0,0,1,385.176,363.053)">
            <g transform="matrix(1,0,0,1,-383.808,-279.303)">
                <path d="M101.589,124.725C100.935,124.732 100.432,124.558 100.076,124.193C99.724,123.833 99.545,123.308 99.539,122.623L99.488,117.56L98.492,117.569C98.405,117.57 98.328,117.546 98.266,117.495C98.209,117.444 98.178,117.363 98.177,117.256L98.171,116.672L99.524,116.49L99.836,113.93C99.85,113.853 99.885,113.781 99.941,113.729C99.997,113.678 100.073,113.651 100.165,113.65L100.902,113.643L100.93,116.492L103.317,116.468L103.327,117.522L100.94,117.545L100.989,122.511C100.993,122.864 101.077,123.119 101.247,123.286C101.418,123.453 101.638,123.533 101.904,123.53C102.058,123.529 102.19,123.507 102.297,123.465C102.409,123.423 102.506,123.381 102.587,123.329C102.669,123.277 102.74,123.236 102.796,123.189C102.851,123.153 102.902,123.132 102.943,123.131C103.02,123.13 103.087,123.176 103.149,123.267L103.58,123.959C103.332,124.191 103.032,124.378 102.681,124.515C102.329,124.651 101.962,124.721 101.589,124.725Z" style="fill:rgb(226,198,47);fill-rule:nonzero;"/>
            </g>
        </g>
        <g transform="matrix(1,0,0,1,385.176,363.053)">
            <g transform="matrix(1,0,0,1,-383.808,-279.258)">
                <path d="M107.013,123.658C107.269,123.655 107.504,123.627 107.713,123.574C107.927,123.521 108.126,123.442 108.309,123.348C108.497,123.249 108.675,123.13 108.847,122.99C109.02,122.85 109.182,122.69 109.344,122.514L109.327,120.801C108.657,120.833 108.09,120.89 107.621,120.977C107.146,121.068 106.769,121.179 106.469,121.32C106.179,121.456 105.966,121.622 105.829,121.808C105.698,121.998 105.634,122.198 105.636,122.428C105.638,122.648 105.676,122.837 105.749,122.99C105.822,123.148 105.921,123.275 106.044,123.381C106.168,123.477 106.312,123.547 106.476,123.597C106.645,123.636 106.824,123.66 107.013,123.658ZM110.14,124.517C109.997,124.518 109.89,124.499 109.813,124.448C109.735,124.408 109.673,124.317 109.631,124.179L109.46,123.408C109.242,123.605 109.034,123.781 108.826,123.936C108.618,124.097 108.399,124.227 108.175,124.337C107.952,124.446 107.712,124.531 107.452,124.589C107.192,124.648 106.906,124.677 106.589,124.68C106.267,124.683 105.965,124.645 105.683,124.561C105.401,124.472 105.149,124.336 104.943,124.159C104.731,123.982 104.56,123.759 104.435,123.484C104.31,123.209 104.245,122.882 104.241,122.509C104.238,122.181 104.327,121.869 104.503,121.565C104.679,121.262 104.968,120.988 105.369,120.753C105.771,120.514 106.29,120.315 106.938,120.16C107.586,120.005 108.377,119.91 109.317,119.875L109.311,119.231C109.305,118.592 109.162,118.107 108.883,117.778C108.598,117.453 108.193,117.293 107.661,117.299C107.303,117.302 107.002,117.346 106.758,117.441C106.518,117.535 106.31,117.634 106.132,117.749C105.959,117.863 105.807,117.967 105.68,118.055C105.553,118.148 105.426,118.195 105.303,118.197C105.206,118.198 105.119,118.173 105.047,118.117C104.974,118.067 104.918,118.006 104.866,117.93L104.6,117.467C105.051,117.023 105.544,116.685 106.068,116.46C106.592,116.24 107.179,116.127 107.818,116.121C108.283,116.116 108.693,116.189 109.057,116.339C109.417,116.488 109.72,116.695 109.969,116.964C110.217,117.232 110.404,117.563 110.53,117.951C110.662,118.333 110.728,118.757 110.732,119.217L110.784,124.51L110.14,124.517Z" style="fill:rgb(226,198,47);fill-rule:nonzero;"/>
            </g>
        </g>
        <g transform="matrix(1,0,0,1,385.176,363.053)">
            <g transform="matrix(1,0,0,1,-383.808,-279.054)">
                <path d="M115.027,112.434L115.071,116.888L116.598,116.213L116.606,117.042C116.608,117.221 116.537,117.339 116.39,117.402L115.082,117.993L115.146,124.463L113.689,124.477L113.63,118.544L112.164,119.198L112.156,118.344C112.154,118.196 112.22,118.088 112.357,118.015L113.619,117.429L113.57,112.448L115.027,112.434Z" style="fill:rgb(226,198,47);fill-rule:nonzero;"/>
            </g>
        </g>
        <g transform="matrix(1,0,0,1,385.176,363.053)">
            <g transform="matrix(1,0,0,1,-383.808,-279.105)">
                <path d="M123.723,117.576C123.683,117.638 123.637,117.69 123.597,117.721C123.551,117.757 123.495,117.773 123.418,117.774C123.336,117.774 123.244,117.745 123.146,117.674C123.048,117.598 122.925,117.533 122.781,117.447C122.632,117.372 122.457,117.302 122.247,117.228C122.037,117.168 121.776,117.135 121.474,117.138C121.065,117.142 120.708,117.212 120.398,117.364C120.087,117.505 119.834,117.722 119.627,118C119.42,118.274 119.265,118.602 119.161,118.992C119.058,119.377 119.011,119.812 119.016,120.288C119.021,120.789 119.081,121.238 119.198,121.626C119.319,122.013 119.481,122.334 119.698,122.603C119.905,122.862 120.163,123.059 120.461,123.199C120.759,123.329 121.092,123.397 121.465,123.394C121.817,123.39 122.108,123.346 122.338,123.262C122.562,123.173 122.75,123.079 122.897,122.975C123.049,122.867 123.171,122.773 123.273,122.69C123.369,122.602 123.471,122.55 123.568,122.549C123.69,122.548 123.783,122.598 123.845,122.685L124.259,123.223C124.083,123.444 123.88,123.636 123.657,123.797C123.428,123.957 123.184,124.093 122.919,124.203C122.66,124.308 122.379,124.392 122.094,124.441C121.803,124.495 121.512,124.524 121.215,124.527C120.694,124.532 120.212,124.439 119.771,124.254C119.324,124.07 118.933,123.787 118.607,123.437C118.277,123.077 118.017,122.635 117.827,122.105C117.633,121.585 117.535,120.983 117.528,120.302C117.522,119.689 117.603,119.12 117.772,118.597C117.936,118.073 118.182,117.616 118.505,117.229C118.834,116.857 119.234,116.557 119.713,116.337C120.196,116.123 120.747,116.01 121.371,116.004C121.954,115.998 122.471,116.09 122.912,116.27C123.359,116.455 123.755,116.717 124.101,117.056L123.723,117.576Z" style="fill:rgb(226,198,47);fill-rule:nonzero;"/>
            </g>
        </g>
        <g transform="matrix(1,0,0,1,385.176,363.053)">
            <g transform="matrix(1,0,0,1,-383.808,-279.017)">
                <path d="M129.065,116.988C128.364,116.995 127.814,117.205 127.415,117.613C127.015,118.021 126.77,118.586 126.68,119.308L131.199,119.263C131.195,118.926 131.146,118.619 131.051,118.334C130.952,118.059 130.811,117.82 130.625,117.612C130.444,117.414 130.218,117.258 129.956,117.148C129.694,117.038 129.397,116.984 129.065,116.988ZM129.023,115.919C129.514,115.914 129.975,115.997 130.401,116.156C130.822,116.316 131.192,116.552 131.502,116.861C131.812,117.17 132.056,117.557 132.234,118.015C132.413,118.474 132.505,118.994 132.511,119.583C132.513,119.813 132.489,119.966 132.444,120.044C132.393,120.116 132.302,120.158 132.169,120.159L126.638,120.214C126.653,120.74 126.729,121.19 126.866,121.577C126.998,121.965 127.185,122.28 127.412,122.538C127.645,122.792 127.918,122.989 128.236,123.108C128.554,123.233 128.907,123.296 129.301,123.292C129.664,123.288 129.975,123.239 130.24,123.155C130.505,123.065 130.729,122.976 130.917,122.877C131.111,122.778 131.268,122.679 131.395,122.601C131.517,122.508 131.629,122.466 131.721,122.465C131.844,122.464 131.936,122.509 132.004,122.6L132.418,123.128C132.236,123.345 132.023,123.541 131.779,123.702C131.525,123.868 131.261,124.004 130.976,124.109C130.69,124.214 130.395,124.294 130.094,124.348C129.787,124.407 129.486,124.436 129.19,124.439C128.617,124.444 128.09,124.347 127.607,124.163C127.125,123.973 126.703,123.691 126.346,123.326C125.995,122.956 125.714,122.494 125.515,121.949C125.31,121.403 125.212,120.77 125.205,120.054C125.199,119.481 125.28,118.938 125.449,118.435C125.623,117.932 125.875,117.5 126.198,117.129C126.527,116.757 126.933,116.462 127.406,116.252C127.885,116.033 128.42,115.925 129.023,115.919Z" style="fill:rgb(226,198,47);fill-rule:nonzero;"/>
            </g>
        </g>
        <g transform="matrix(1,0,0,1,385.176,363.053)">
            <g transform="matrix(1,0,0,1,-383.808,-278.856)">
                <path d="M134.314,124.279L134.232,116.009L135.107,116.001C135.311,115.999 135.44,116.094 135.493,116.293L135.614,117.192C135.973,116.795 136.374,116.469 136.816,116.219C137.258,115.969 137.774,115.841 138.356,115.835C138.806,115.831 139.206,115.899 139.55,116.049C139.899,116.193 140.192,116.405 140.425,116.679C140.658,116.948 140.835,117.279 140.961,117.666C141.083,118.049 141.148,118.473 141.153,118.943L141.205,124.211L139.743,124.225L139.691,118.958C139.685,118.334 139.537,117.849 139.247,117.504C138.957,117.159 138.521,116.995 137.938,117.001C137.504,117.005 137.101,117.111 136.73,117.325C136.359,117.533 136.019,117.818 135.711,118.174L135.771,124.265L134.314,124.279Z" style="fill:rgb(226,198,47);fill-rule:nonzero;"/>
            </g>
        </g>
        <g transform="matrix(1,0,0,1,385.176,363.053)">
            <g transform="matrix(1,0,0,1,-383.808,-278.768)">
                <path d="M144.974,124.176L143.522,124.191L143.44,115.921L144.892,115.906L144.974,124.176ZM145.173,113.305C145.175,113.443 145.15,113.576 145.095,113.7C145.04,113.823 144.965,113.931 144.869,114.029C144.777,114.127 144.666,114.2 144.538,114.258C144.411,114.31 144.273,114.337 144.13,114.338C143.992,114.34 143.859,114.316 143.736,114.266C143.613,114.211 143.505,114.14 143.412,114.044C143.319,113.948 143.246,113.841 143.189,113.719C143.131,113.596 143.104,113.464 143.103,113.326C143.101,113.182 143.126,113.044 143.181,112.916C143.236,112.792 143.306,112.679 143.397,112.581C143.488,112.488 143.595,112.41 143.717,112.353C143.839,112.295 143.972,112.269 144.11,112.267C144.253,112.266 144.391,112.29 144.52,112.345C144.648,112.4 144.761,112.476 144.854,112.567C144.952,112.663 145.03,112.775 145.087,112.897C145.145,113.024 145.172,113.162 145.173,113.305Z" style="fill:rgb(226,198,47);fill-rule:nonzero;"/>
            </g>
        </g>
        <g transform="matrix(1,0,0,1,385.176,363.053)">
            <g transform="matrix(1,0,0,1,-383.808,-278.837)">
                <path d="M149.471,123.237C149.727,123.234 149.962,123.207 150.176,123.153C150.385,123.1 150.583,123.021 150.772,122.927C150.96,122.828 151.138,122.709 151.305,122.569C151.477,122.429 151.644,122.269 151.806,122.094L151.789,120.38C151.12,120.413 150.548,120.469 150.078,120.556C149.609,120.648 149.227,120.759 148.932,120.9C148.636,121.036 148.423,121.201 148.292,121.387C148.156,121.577 148.092,121.778 148.094,122.008C148.096,122.228 148.139,122.416 148.207,122.569C148.285,122.727 148.378,122.854 148.502,122.96C148.626,123.056 148.77,123.126 148.939,123.176C149.103,123.215 149.282,123.239 149.471,123.237ZM152.603,124.096C152.46,124.097 152.347,124.078 152.27,124.028C152.198,123.987 152.136,123.896 152.094,123.758L151.917,122.988C151.705,123.184 151.492,123.36 151.284,123.516C151.076,123.676 150.857,123.806 150.633,123.916C150.409,124.026 150.17,124.11 149.91,124.169C149.655,124.227 149.369,124.256 149.047,124.259C148.73,124.262 148.428,124.224 148.146,124.14C147.859,124.051 147.612,123.915 147.4,123.738C147.189,123.561 147.023,123.338 146.898,123.063C146.772,122.788 146.703,122.461 146.699,122.088C146.696,121.761 146.785,121.448 146.961,121.144C147.137,120.841 147.425,120.567 147.827,120.333C148.228,120.093 148.748,119.894 149.401,119.739C150.043,119.584 150.84,119.49 151.78,119.455L151.774,118.81C151.767,118.171 151.62,117.687 151.34,117.357C151.056,117.032 150.65,116.873 150.119,116.878C149.761,116.882 149.46,116.925 149.22,117.02C148.976,117.114 148.772,117.214 148.595,117.328C148.417,117.442 148.27,117.546 148.138,117.634C148.011,117.727 147.888,117.775 147.761,117.776C147.664,117.777 147.576,117.752 147.509,117.697C147.437,117.646 147.375,117.585 147.329,117.509L147.058,117.046C147.514,116.602 148.001,116.265 148.526,116.04C149.055,115.82 149.637,115.706 150.281,115.7C150.741,115.695 151.156,115.768 151.515,115.918C151.874,116.068 152.178,116.274 152.426,116.543C152.674,116.812 152.862,117.142 152.993,117.53C153.12,117.912 153.185,118.336 153.19,118.796L153.242,124.09L152.603,124.096Z" style="fill:rgb(226,198,47);fill-rule:nonzero;"/>
            </g>
        </g>
        <g transform="matrix(1,0,0,1,385.176,363.053)">
            <g transform="matrix(1,0,0,1,-383.808,-278.603)">
                <path d="M161.502,117.434L162.1,117.428C162.304,117.426 162.467,117.399 162.595,117.346C162.722,117.294 162.828,117.201 162.935,117.077L166.781,112.63C166.892,112.486 167.004,112.387 167.126,112.335C167.243,112.277 167.391,112.245 167.565,112.244L168.904,112.23L164.496,117.317C164.385,117.446 164.284,117.555 164.188,117.637C164.086,117.725 163.98,117.798 163.868,117.85C164.011,117.9 164.145,117.97 164.268,118.066C164.387,118.162 164.506,118.279 164.62,118.431L169.332,123.934L167.956,123.948C167.854,123.949 167.767,123.944 167.69,123.93C167.619,123.915 167.552,123.895 167.501,123.865C167.444,123.835 167.398,123.8 167.356,123.759C167.315,123.719 167.274,123.668 167.237,123.617L163.153,119.013C163.05,118.876 162.931,118.78 162.803,118.725C162.674,118.665 162.485,118.647 162.234,118.649L161.514,118.656L161.567,124.011L159.992,124.026L159.876,112.32L161.451,112.304L161.502,117.434Z" style="fill:rgb(226,198,47);fill-rule:nonzero;"/>
            </g>
        </g>
        <g transform="matrix(1,0,0,1,385.176,363.053)">
            <g transform="matrix(1,0,0,1,-383.808,-278.609)">
                <path d="M172.471,123.009C172.726,123.006 172.961,122.979 173.17,122.925C173.384,122.872 173.583,122.793 173.771,122.699C173.954,122.6 174.137,122.481 174.304,122.341C174.472,122.201 174.644,122.041 174.801,121.866L174.784,120.152C174.114,120.185 173.547,120.241 173.078,120.328C172.609,120.42 172.226,120.531 171.931,120.672C171.636,120.808 171.418,120.973 171.292,121.159C171.156,121.349 171.091,121.55 171.093,121.78C171.096,122 171.138,122.188 171.206,122.341C171.28,122.499 171.378,122.626 171.502,122.732C171.625,122.828 171.769,122.898 171.938,122.948C172.102,122.987 172.281,123.011 172.471,123.009ZM175.603,123.868C175.455,123.869 175.347,123.85 175.27,123.8C175.193,123.759 175.136,123.668 175.088,123.53L174.917,122.76C174.699,122.956 174.491,123.132 174.283,123.288C174.075,123.448 173.857,123.578 173.633,123.688C173.409,123.798 173.169,123.882 172.909,123.941C172.654,123.999 172.363,124.028 172.046,124.031C171.724,124.034 171.427,123.996 171.145,123.912C170.858,123.823 170.611,123.687 170.395,123.51C170.189,123.333 170.018,123.11 169.892,122.835C169.767,122.56 169.702,122.233 169.699,121.86C169.695,121.533 169.784,121.22 169.96,120.916C170.136,120.613 170.425,120.339 170.826,120.105C171.228,119.865 171.747,119.666 172.395,119.511C173.043,119.356 173.834,119.262 174.775,119.227L174.768,118.582C174.762,117.943 174.619,117.459 174.34,117.129C174.055,116.804 173.65,116.645 173.118,116.65C172.76,116.654 172.459,116.697 172.215,116.792C171.975,116.886 171.772,116.986 171.589,117.1C171.416,117.214 171.264,117.318 171.137,117.406C171.01,117.499 170.883,117.547 170.76,117.548C170.663,117.549 170.576,117.524 170.509,117.469C170.437,117.418 170.37,117.357 170.328,117.281L170.058,116.818C170.513,116.374 171.001,116.037 171.525,115.812C172.055,115.592 172.636,115.478 173.28,115.472C173.741,115.467 174.155,115.54 174.515,115.69C174.874,115.84 175.178,116.046 175.426,116.315C175.674,116.584 175.861,116.914 175.993,117.302C176.119,117.684 176.185,118.108 176.189,118.568L176.242,123.862L175.603,123.868Z" style="fill:rgb(226,198,47);fill-rule:nonzero;"/>
            </g>
        </g>
        <g transform="matrix(1,0,0,1,385.176,363.053)">
            <g transform="matrix(1,0,0,1,-383.808,-278.507)">
                <path d="M181.613,122.749C182.093,122.744 182.506,122.632 182.867,122.409C183.218,122.19 183.542,121.88 183.839,121.478L183.8,117.484C183.525,117.129 183.226,116.876 182.908,116.731C182.59,116.591 182.236,116.518 181.848,116.521C181.081,116.529 180.496,116.811 180.082,117.368C179.679,117.919 179.477,118.709 179.487,119.721C179.492,120.263 179.543,120.723 179.639,121.106C179.734,121.488 179.875,121.804 180.052,122.048C180.238,122.297 180.46,122.474 180.722,122.583C180.983,122.699 181.281,122.752 181.613,122.749ZM184.45,123.784C184.241,123.786 184.112,123.685 184.054,123.486L183.916,122.48C183.562,122.913 183.162,123.265 182.709,123.525C182.257,123.786 181.742,123.924 181.154,123.929C180.679,123.934 180.248,123.846 179.858,123.671C179.468,123.491 179.138,123.228 178.864,122.878C178.584,122.523 178.375,122.085 178.222,121.555C178.068,121.029 177.991,120.421 177.984,119.736C177.978,119.133 178.054,118.564 178.212,118.036C178.371,117.507 178.596,117.05 178.899,116.663C179.202,116.271 179.572,115.961 180.015,115.737C180.457,115.512 180.952,115.4 181.509,115.394C182.015,115.389 182.451,115.467 182.81,115.632C183.175,115.802 183.499,116.04 183.789,116.349L183.743,111.761L185.195,111.747L185.314,123.776L184.45,123.784Z" style="fill:rgb(226,198,47);fill-rule:nonzero;"/>
            </g>
        </g>
        <g transform="matrix(1,0,0,1,385.176,363.053)">
            <g transform="matrix(1,0,0,1,-383.808,-278.326)">
                <path d="M187.613,123.749L187.531,115.479L188.359,115.471C188.518,115.469 188.63,115.494 188.687,115.555C188.749,115.615 188.791,115.717 188.813,115.865L188.917,117.123C189.172,116.552 189.495,116.104 189.875,115.783C190.251,115.462 190.719,115.299 191.266,115.294C191.44,115.292 191.609,115.306 191.768,115.345C191.932,115.379 192.07,115.439 192.199,115.52L192.107,116.605C192.073,116.744 191.992,116.816 191.864,116.817C191.787,116.818 191.675,116.799 191.526,116.769C191.378,116.735 191.214,116.721 191.03,116.723C190.769,116.726 190.534,116.769 190.326,116.848C190.122,116.932 189.939,117.046 189.782,117.201C189.62,117.351 189.479,117.531 189.358,117.752C189.233,117.974 189.123,118.225 189.018,118.508L189.07,123.735L187.613,123.749Z" style="fill:rgb(226,198,47);fill-rule:nonzero;"/>
            </g>
        </g>
        <g transform="matrix(1,0,0,1,385.176,363.053)">
            <g transform="matrix(1,0,0,1,-383.808,-278.329)">
                <path d="M203.625,113.715C203.575,113.797 203.524,113.859 203.468,113.901C203.407,113.942 203.341,113.963 203.259,113.964C203.167,113.965 203.06,113.92 202.931,113.829C202.802,113.738 202.648,113.638 202.457,113.527C202.267,113.416 202.041,113.321 201.78,113.232C201.518,113.137 201.19,113.094 200.817,113.098C200.465,113.102 200.153,113.151 199.883,113.251C199.618,113.35 199.39,113.481 199.207,113.646C199.03,113.806 198.894,114.002 198.804,114.223C198.714,114.444 198.67,114.685 198.673,114.94C198.676,115.268 198.756,115.538 198.926,115.751C199.082,115.964 199.298,116.146 199.566,116.297C199.828,116.448 200.131,116.578 200.464,116.682C200.803,116.791 201.146,116.905 201.495,117.02C201.849,117.134 202.193,117.268 202.532,117.413C202.866,117.564 203.169,117.75 203.432,117.972C203.7,118.2 203.912,118.479 204.079,118.81C204.241,119.141 204.327,119.549 204.332,120.03C204.337,120.541 204.255,121.023 204.085,121.475C203.916,121.926 203.664,122.318 203.33,122.653C203.001,122.989 202.595,123.259 202.106,123.448C201.622,123.647 201.071,123.745 200.447,123.751C199.691,123.758 198.994,123.632 198.373,123.362C197.747,123.092 197.216,122.724 196.772,122.263L197.22,121.507C197.26,121.445 197.316,121.393 197.377,121.357C197.443,121.31 197.509,121.289 197.586,121.288C197.657,121.288 197.734,121.318 197.827,121.373C197.919,121.428 198.022,121.499 198.136,121.585C198.249,121.676 198.383,121.766 198.532,121.867C198.676,121.973 198.846,122.064 199.031,122.149C199.221,122.234 199.436,122.303 199.677,122.357C199.918,122.416 200.189,122.439 200.485,122.436C200.864,122.432 201.195,122.378 201.491,122.267C201.781,122.162 202.03,122.017 202.228,121.825C202.43,121.639 202.587,121.413 202.691,121.151C202.801,120.889 202.855,120.597 202.851,120.275C202.848,119.922 202.758,119.631 202.597,119.408C202.437,119.184 202.225,118.997 201.963,118.846C201.701,118.695 201.398,118.57 201.06,118.466C200.716,118.367 200.378,118.258 200.024,118.149C199.675,118.04 199.336,117.916 198.998,117.771C198.659,117.626 198.355,117.445 198.092,117.207C197.829,116.979 197.617,116.69 197.45,116.339C197.288,115.987 197.197,115.558 197.191,115.037C197.187,114.623 197.27,114.223 197.425,113.838C197.585,113.447 197.811,113.097 198.115,112.798C198.419,112.493 198.795,112.254 199.243,112.07C199.691,111.887 200.206,111.79 200.789,111.784C201.443,111.777 202.037,111.874 202.576,112.073C203.115,112.278 203.588,112.575 204.001,112.964L203.625,113.715Z" style="fill:rgb(226,198,47);fill-rule:nonzero;"/>
            </g>
        </g>
        <g transform="matrix(1,0,0,1,385.176,363.053)">
            <g transform="matrix(1,0,0,1,-383.808,-278.196)">
                <path d="M209.716,116.287C209.241,116.292 208.828,116.404 208.477,116.627C208.122,116.845 207.793,117.155 207.5,117.557L207.54,121.562C207.804,121.917 208.098,122.165 208.416,122.31C208.735,122.455 209.093,122.523 209.482,122.519C210.259,122.512 210.849,122.235 211.258,121.678C211.666,121.127 211.858,120.337 211.848,119.32C211.842,118.783 211.792,118.318 211.696,117.935C211.595,117.547 211.459,117.237 211.272,116.988C211.091,116.739 210.869,116.562 210.608,116.452C210.346,116.337 210.049,116.284 209.716,116.287ZM206.125,126.368L206.016,115.296L206.89,115.287C207.094,115.285 207.223,115.381 207.276,115.58L207.408,116.561C207.757,116.128 208.157,115.781 208.615,115.516C209.067,115.25 209.587,115.112 210.175,115.106C210.656,115.102 211.091,115.189 211.476,115.365C211.866,115.545 212.196,115.813 212.476,116.163C212.75,116.518 212.964,116.961 213.118,117.486C213.266,118.012 213.344,118.619 213.35,119.305C213.357,119.913 213.285,120.482 213.127,121.01C212.969,121.539 212.738,121.996 212.435,122.383C212.127,122.769 211.757,123.075 211.314,123.299C210.872,123.524 210.377,123.641 209.82,123.646C209.314,123.652 208.884,123.569 208.514,123.404C208.154,123.238 207.83,123.006 207.551,122.697L207.587,126.354L206.125,126.368Z" style="fill:rgb(226,198,47);fill-rule:nonzero;"/>
            </g>
        </g>
        <g transform="matrix(1,0,0,1,385.176,363.053)">
            <g transform="matrix(1,0,0,1,-383.808,-278.133)">
                <path d="M218.725,122.42C219.543,122.412 220.148,122.129 220.547,121.578C220.94,121.027 221.137,120.263 221.127,119.286C221.118,118.299 220.905,117.534 220.501,116.985C220.092,116.442 219.481,116.172 218.663,116.18C218.249,116.184 217.887,116.259 217.581,116.401C217.276,116.547 217.023,116.754 216.821,117.022C216.619,117.295 216.474,117.624 216.37,118.008C216.277,118.403 216.236,118.843 216.24,119.334C216.25,120.311 216.457,121.071 216.866,121.615C217.276,122.158 217.897,122.428 218.725,122.42ZM218.652,115.04C219.255,115.034 219.798,115.125 220.285,115.325C220.773,115.52 221.19,115.802 221.536,116.167C221.882,116.537 222.153,116.979 222.337,117.504C222.526,118.024 222.619,118.611 222.625,119.261C222.631,119.916 222.55,120.499 222.372,121.028C222.198,121.551 221.936,121.999 221.598,122.376C221.259,122.747 220.847,123.033 220.364,123.237C219.88,123.441 219.339,123.549 218.736,123.555C218.128,123.561 217.575,123.464 217.087,123.27C216.6,123.075 216.183,122.798 215.837,122.433C215.485,122.063 215.22,121.621 215.036,121.101C214.847,120.576 214.749,119.994 214.743,119.339C214.736,118.69 214.822,118.1 215.001,117.577C215.175,117.048 215.431,116.601 215.775,116.224C216.114,115.852 216.525,115.562 217.009,115.358C217.492,115.148 218.044,115.046 218.652,115.04Z" style="fill:rgb(226,198,47);fill-rule:nonzero;"/>
            </g>
        </g>
        <g transform="matrix(1,0,0,1,385.176,363.053)">
            <g transform="matrix(1,0,0,1,-383.808,-277.96)">
                <path d="M224.513,123.383L224.431,115.113L225.259,115.105C225.417,115.104 225.53,115.128 225.587,115.189C225.649,115.25 225.691,115.352 225.713,115.5L225.817,116.757C226.072,116.187 226.395,115.738 226.775,115.418C227.155,115.097 227.619,114.933 228.166,114.928C228.34,114.926 228.509,114.94 228.668,114.979C228.832,115.014 228.97,115.074 229.099,115.154L229.002,116.239C228.973,116.378 228.892,116.45 228.764,116.451C228.687,116.452 228.575,116.433 228.426,116.404C228.277,116.369 228.114,116.356 227.93,116.357C227.664,116.36 227.434,116.403 227.225,116.482C227.022,116.566 226.839,116.68 226.682,116.835C226.52,116.985 226.378,117.166 226.258,117.387C226.132,117.608 226.022,117.86 225.918,118.142L225.97,123.369L224.513,123.383Z" style="fill:rgb(226,198,47);fill-rule:nonzero;"/>
            </g>
        </g>
        <g transform="matrix(1,0,0,1,385.176,363.053)">
            <g transform="matrix(1,0,0,1,-383.808,-278.001)">
                <path d="M232.992,123.423C232.338,123.429 231.835,123.255 231.479,122.891C231.128,122.531 230.949,122.006 230.942,121.321L230.892,116.257L229.895,116.267C229.808,116.268 229.731,116.243 229.674,116.193C229.613,116.142 229.581,116.061 229.58,115.953L229.574,115.37L230.927,115.188L231.239,112.628C231.254,112.551 231.289,112.479 231.345,112.427C231.4,112.375 231.477,112.349 231.569,112.348L232.305,112.341L232.333,115.189L234.725,115.166L234.736,116.219L232.343,116.243L232.393,121.209C232.396,121.562 232.48,121.817 232.651,121.984C232.821,122.151 233.042,122.231 233.308,122.228C233.461,122.227 233.594,122.205 233.701,122.163C233.813,122.121 233.909,122.079 233.991,122.027C234.072,121.975 234.143,121.933 234.199,121.887C234.255,121.85 234.306,121.829 234.347,121.829C234.428,121.828 234.495,121.874 234.552,121.965L234.984,122.656C234.735,122.889 234.441,123.076 234.084,123.213C233.733,123.349 233.371,123.419 232.992,123.423Z" style="fill:rgb(226,198,47);fill-rule:nonzero;"/>
            </g>
        </g>
        <g transform="matrix(1,0,0,1,385.176,363.053)">
            <g transform="matrix(1,0,0,1,-383.808,-277.924)">
                <path d="M239.78,122.211C240.597,122.203 241.203,121.921 241.601,121.369C241.995,120.818 242.192,120.054 242.182,119.077C242.172,118.09 241.96,117.325 241.556,116.777C241.147,116.233 240.536,115.963 239.718,115.971C239.304,115.976 238.947,116.051 238.636,116.192C238.331,116.338 238.077,116.545 237.875,116.813C237.679,117.086 237.529,117.415 237.43,117.8C237.332,118.194 237.29,118.635 237.295,119.126C237.305,120.103 237.512,120.863 237.921,121.406C238.335,121.949 238.951,122.219 239.78,122.211ZM239.706,114.831C240.31,114.825 240.858,114.917 241.345,115.116C241.828,115.311 242.245,115.593 242.591,115.958C242.937,116.328 243.207,116.771 243.391,117.296C243.581,117.815 243.678,118.403 243.685,119.052C243.691,119.707 243.605,120.291 243.426,120.819C243.252,121.343 242.991,121.79 242.652,122.167C242.313,122.539 241.902,122.824 241.424,123.028C240.94,123.233 240.394,123.34 239.791,123.346C239.182,123.352 238.629,123.255 238.142,123.061C237.654,122.866 237.237,122.589 236.891,122.224C236.545,121.854 236.275,121.412 236.091,120.892C235.901,120.367 235.804,119.785 235.797,119.13C235.791,118.481 235.877,117.892 236.056,117.368C236.23,116.84 236.491,116.392 236.83,116.015C237.169,115.644 237.58,115.353 238.063,115.149C238.547,114.94 239.098,114.837 239.706,114.831Z" style="fill:rgb(226,198,47);fill-rule:nonzero;"/>
            </g>
        </g>
        <g transform="matrix(1,0,0,1,385.176,363.053)">
            <g transform="matrix(1,0,0,1,-383.808,-277.732)">
                <path d="M244.477,114.912L245.622,114.901C245.735,114.9 245.832,114.929 245.909,114.99C245.992,115.046 246.044,115.117 246.07,115.198L247.707,120.506C247.755,120.695 247.798,120.884 247.836,121.068C247.878,121.246 247.911,121.425 247.943,121.609C247.982,121.424 248.032,121.245 248.081,121.065C248.135,120.881 248.19,120.691 248.249,120.501L249.939,115.129C249.969,115.047 250.014,114.975 250.086,114.923C250.151,114.866 250.233,114.84 250.33,114.839L250.969,114.833C251.076,114.831 251.169,114.856 251.241,114.912C251.308,114.962 251.354,115.033 251.386,115.115L253.146,120.453C253.199,120.641 253.257,120.83 253.305,121.014C253.358,121.202 253.406,121.381 253.454,121.559C253.483,121.38 253.517,121.201 253.556,121.016C253.595,120.832 253.639,120.642 253.683,120.447L255.246,115.107C255.275,115.02 255.326,114.948 255.402,114.891C255.478,114.834 255.565,114.802 255.672,114.801L256.761,114.79L254.169,123.087L253.019,123.098C252.876,123.1 252.778,123.009 252.72,122.825L250.839,117.233C250.792,117.11 250.755,116.983 250.728,116.855C250.696,116.728 250.67,116.605 250.638,116.478C250.619,116.606 250.589,116.729 250.56,116.862C250.53,116.99 250.501,117.118 250.461,117.247L248.656,122.865C248.612,123.05 248.5,123.143 248.332,123.145L247.243,123.155L244.477,114.912Z" style="fill:rgb(226,198,47);fill-rule:nonzero;"/>
            </g>
        </g>
        <g transform="matrix(1,0,0,1,385.176,363.053)">
            <g transform="matrix(1,0,0,1,-383.808,-277.67)">
                <path d="M260.802,125.468C260.757,125.576 260.696,125.663 260.625,125.73C260.549,125.793 260.437,125.83 260.284,125.831L259.205,125.842L260.686,122.543L257.194,114.788L258.451,114.776C258.579,114.774 258.677,114.799 258.754,114.865C258.826,114.925 258.873,114.997 258.904,115.068L261.169,120.262C261.211,120.385 261.254,120.507 261.296,120.624C261.333,120.742 261.364,120.859 261.396,120.987C261.465,120.74 261.545,120.494 261.634,120.248L263.725,115.02C263.76,114.938 263.815,114.861 263.891,114.804C263.972,114.747 264.059,114.72 264.156,114.719L265.312,114.708L260.802,125.468Z" style="fill:rgb(226,198,47);fill-rule:nonzero;"/>
            </g>
        </g>
        <g transform="matrix(1,0,0,1,385.176,363.053)">
            <g transform="matrix(1,0,0,1,-383.808,-277.634)">
                <path d="M272.15,116.105C272.11,116.167 272.065,116.219 272.024,116.25C271.973,116.286 271.917,116.302 271.841,116.303C271.759,116.303 271.672,116.274 271.574,116.203C271.471,116.127 271.352,116.062 271.203,115.976C271.059,115.901 270.885,115.831 270.675,115.757C270.459,115.697 270.203,115.664 269.902,115.667C269.493,115.671 269.136,115.741 268.825,115.893C268.515,116.034 268.261,116.251 268.049,116.529C267.843,116.803 267.687,117.131 267.589,117.521C267.485,117.906 267.439,118.341 267.443,118.817C267.448,119.318 267.509,119.767 267.625,120.155C267.747,120.542 267.908,120.863 268.126,121.132C268.333,121.391 268.59,121.588 268.883,121.728C269.186,121.858 269.519,121.926 269.887,121.923C270.24,121.919 270.531,121.875 270.76,121.791C270.989,121.702 271.177,121.608 271.325,121.504C271.472,121.396 271.599,121.302 271.695,121.219C271.801,121.131 271.898,121.079 271.995,121.078C272.118,121.077 272.205,121.127 272.273,121.214L272.687,121.752C272.51,121.973 272.308,122.165 272.084,122.325C271.851,122.486 271.607,122.622 271.347,122.732C271.087,122.837 270.807,122.921 270.521,122.97C270.23,123.024 269.939,123.053 269.638,123.056C269.121,123.061 268.64,122.968 268.198,122.783C267.752,122.599 267.365,122.316 267.03,121.966C266.704,121.606 266.444,121.164 266.25,120.634C266.06,120.114 265.962,119.512 265.956,118.831C265.95,118.218 266.031,117.649 266.194,117.126C266.363,116.602 266.609,116.145 266.932,115.758C267.261,115.386 267.662,115.086 268.14,114.866C268.624,114.652 269.175,114.539 269.798,114.533C270.381,114.527 270.893,114.619 271.34,114.799C271.787,114.984 272.183,115.246 272.529,115.585L272.15,116.105Z" style="fill:rgb(226,198,47);fill-rule:nonzero;"/>
            </g>
        </g>
        <g transform="matrix(1,0,0,1,385.176,363.053)">
            <g transform="matrix(1,0,0,1,-383.808,-277.463)">
                <path d="M274.265,122.886L274.146,110.857L275.608,110.842L275.656,115.711C276.005,115.329 276.396,115.024 276.823,114.794C277.25,114.565 277.74,114.448 278.307,114.442C278.752,114.438 279.157,114.505 279.501,114.655C279.85,114.8 280.143,115.012 280.376,115.286C280.604,115.555 280.786,115.885 280.912,116.273C281.034,116.655 281.099,117.079 281.104,117.55L281.156,122.817L279.694,122.832L279.642,117.564C279.636,116.94 279.488,116.456 279.198,116.111C278.908,115.766 278.472,115.601 277.889,115.607C277.455,115.611 277.052,115.718 276.681,115.931C276.31,116.139 275.97,116.424 275.667,116.78L275.727,122.871L274.265,122.886Z" style="fill:rgb(226,198,47);fill-rule:nonzero;"/>
            </g>
        </g>
    </g>
</svg>
