<?xml version="1.0" encoding="UTF-8"?>
<!DOCTYPE svg PUBLIC "-//W3C//DTD SVG 1.1//EN" "http://www.w3.org/Graphics/SVG/1.1/DTD/svg11.dtd">
<!-- Creator: CorelDRAW -->
<svg xmlns="http://www.w3.org/2000/svg" xml:space="preserve" width="26mm" height="15mm" style="shape-rendering:geometricPrecision; text-rendering:geometricPrecision; image-rendering:optimizeQuality; fill-rule:evenodd; clip-rule:evenodd"
viewBox="0 0 26 15"
 xmlns:xlink="http://www.w3.org/1999/xlink">
 <defs>
  <style type="text/css">
   <![CDATA[
    .fil2 {fill:#66FFCC}
    .fil4 {fill:#7FE500}
    .fil3 {fill:#E500E5}
    .fil5 {fill:#E5E5E5}
    .fil1 {fill:#FF3300}
    .fil0 {fill:#FFCC00}
   ]]>
  </style>
 </defs>
 <g id="Warstwa_x0020_1">
  <metadata id="CorelCorpID_0Corel-Layer"/>
  <g id="_171259008">
   <path id="_170284136" class="fil0" d="M6.7778 0.971c1.5245,0 0.2677,10.489 0.0001,13.0579 -0.2677,-2.5691 -1.5246,-13.0579 -0.0001,-13.0579z"/>
   <path id="_170283608" class="fil1" d="M6.1686 13.1866c-2.3912,-3.2782 -8.079,-11.2259 -0.8585,-12.1299l-0.2232 0.1426 -0.2963 0.2773 -0.2439 0.3249 -0.1937 0.3648 -0.1478 0.399 -0.1063 0.4291 -0.0686 0.4558 -0.035 0.4796 -0.0041 0.5007 0.0238 0.519 0.0487 0.5345 0.0716 0.5469 0.0916 0.5564 0.1096 0.5625 0.1248 0.5659 0.2862 1.1281 0.3196 1.1018c0.1616,0.5173 0.3284,1.0318 0.5009,1.5456 0.1957,0.5667 0.3974,1.1314 0.6006,1.6954z"/>
   <path id="_170284160" class="fil2" d="M8.2457 1.0566c7.2201,0.9043 1.5324,8.8525 -0.8582,12.1303 0.2033,-0.5642 0.4049,-1.1289 0.6006,-1.6957 0.1726,-0.5139 0.3392,-1.0282 0.5008,-1.5454l0.3195 -1.102 0.2863 -1.128 0.1248 -0.5659 0.1095 -0.5626 0.0916 -0.5564 0.0716 -0.5469 0.0489 -0.5344 0.0235 -0.519 -0.0041 -0.5008 -0.0348 -0.4796 -0.0689 -0.4558 -0.1062 -0.4291 -0.1479 -0.399 -0.1936 -0.3648 -0.2437 -0.3249 -0.2964 -0.2773 -0.2233 -0.1427z"/>
   <path id="_170283872" class="fil3" d="M6.3697 12.9017c-1.2662,-3.4876 -3.9197,-11.2128 -0.149,-11.8824l-0.0487 0.0666 -0.1097 0.2366 -0.086 0.2719 -0.0684 0.308 -0.0541 0.3436 -0.0415 0.3778 -0.0299 0.4097 -0.0197 0.439 -0.0112 0.9543c0.0072,0.5255 0.0217,1.0494 0.042,1.5747 0.0363,0.7444 0.0825,1.4873 0.1361,2.2309 0.122,1.5592 0.2741,3.1143 0.4401,4.6693z"/>
   <path id="_170283128" class="fil4" d="M7.3352 1.0192c3.7709,0.6698 1.1163,8.3973 -0.1491,11.8838 0.0702,-0.6568 0.1383,-1.3133 0.2036,-1.9702 0.1227,-1.2738 0.2303,-2.5468 0.3136,-3.8235 0.0316,-0.5493 0.0586,-1.0979 0.0799,-1.6475 0.0137,-0.5087 0.0211,-1.0152 0.0199,-1.5238l-0.0297 -0.9045 -0.03 -0.4097 -0.0413 -0.3778 -0.0541 -0.3436 -0.0685 -0.308 -0.0859 -0.2719 -0.1097 -0.2366 -0.0487 -0.0667z"/>
   <path id="_170282984" class="fil5" d="M14.2224 5.0285l0 -2.1554 0.3983 0c0.08,0 0.1327,0.0361 0.1575,0.1082l0.0354 0.1163c0.0359,-0.0374 0.0731,-0.0719 0.1118,-0.1032 0.0389,-0.0313 0.0809,-0.0582 0.1258,-0.081 0.045,-0.0229 0.0934,-0.0409 0.1453,-0.0541 0.0517,-0.0133 0.1084,-0.0194 0.1707,-0.0194 0.13,0 0.2377,0.0333 0.3227,0.1005 0.0852,0.0672 0.1494,0.1572 0.1937,0.2695 0.0359,-0.0665 0.0801,-0.1233 0.132,-0.1705 0.0519,-0.047 0.1078,-0.0852 0.1679,-0.1143 0.0603,-0.0292 0.1238,-0.0506 0.1909,-0.0644 0.067,-0.0139 0.1333,-0.0208 0.1997,-0.0208 0.1231,0 0.2323,0.018 0.3277,0.0548 0.0954,0.0367 0.1755,0.09 0.2398,0.16 0.0643,0.0699 0.1127,0.1558 0.1459,0.2577 0.0332,0.1019 0.0497,0.2175 0.0497,0.3465l0.0001 1.3696 -0.6429 0 0 -1.3697c0,-0.2231 -0.0954,-0.3346 -0.2862,-0.3346 -0.0869,0 -0.159,0.0285 -0.2163,0.0859 -0.0573,0.0575 -0.0865,0.1407 -0.0865,0.2488l0.0001 1.3696 -0.643 0 0 -1.3697c0,-0.1234 -0.0241,-0.2099 -0.0725,-0.2598 -0.0483,-0.0499 -0.1196,-0.0748 -0.2136,-0.0748 -0.058,0 -0.1127,0.0131 -0.1645,0.0395 -0.0518,0.0263 -0.101,0.0617 -0.1466,0.106l0 1.5588 -0.6429 0zm4.1228 -1.9225c0.0414,-0.0388 0.0843,-0.0749 0.1286,-0.1081 0.0443,-0.0333 0.0919,-0.0617 0.1424,-0.0845 0.0504,-0.0229 0.1051,-0.0409 0.1637,-0.0541 0.0589,-0.0133 0.1224,-0.0194 0.1915,-0.0194 0.1177,0 0.222,0.0201 0.3125,0.061 0.0905,0.0409 0.1666,0.0977 0.2288,0.1704 0.0623,0.0728 0.1092,0.1594 0.1411,0.2599 0.0318,0.1003 0.0476,0.2099 0.0476,0.3277l0.0001 1.3696 -0.643 0 0 -1.3697c0,-0.1053 -0.0241,-0.1877 -0.0725,-0.2466 -0.0483,-0.059 -0.1196,-0.088 -0.2136,-0.088 -0.0706,0 -0.1362,0.0146 -0.1977,0.0443 -0.0616,0.0298 -0.1217,0.0707 -0.1798,0.122l0.0001 1.538 -0.6429 0 0 -2.1554 0.3982 0c0.0801,0 0.1327,0.0361 0.1575,0.1082l0.0374 0.1247zm2.4284 -0.2329l0 2.1554 -0.6428 0 0 -2.1554 0.6428 0zm0.0665 -0.5902c0,0.0512 -0.0105,0.0991 -0.0313,0.1441 -0.0207,0.045 -0.0491,0.0845 -0.085,0.1184 -0.0359,0.0339 -0.0774,0.0611 -0.1251,0.0811 -0.0476,0.02 -0.0988,0.0305 -0.1528,0.0305 -0.0525,-0.0001 -0.1016,-0.0104 -0.1472,-0.0305 -0.0457,-0.0201 -0.0858,-0.0471 -0.1209,-0.0811 -0.0352,-0.0339 -0.063,-0.0734 -0.083,-0.1184 -0.0201,-0.045 -0.0304,-0.0929 -0.0304,-0.1441 0,-0.0527 0.0103,-0.1019 0.0304,-0.1476 0.02,-0.0458 0.0477,-0.0859 0.083,-0.1206 0.0351,-0.0346 0.0752,-0.0616 0.1209,-0.0811 0.0457,-0.0193 0.0947,-0.029 0.1472,-0.029 0.0541,-0.0001 0.1051,0.0097 0.1528,0.029 0.0477,0.0195 0.0892,0.0465 0.1251,0.0811 0.0359,0.0346 0.0643,0.0748 0.085,0.1206 0.0209,0.0457 0.0312,0.0949 0.0313,0.1476zm1.7211 1.4092c0,-0.0512 -0.0062,-0.1011 -0.0193,-0.1496 -0.0132,-0.0486 -0.0346,-0.0922 -0.0643,-0.1303 -0.0297,-0.0381 -0.0691,-0.0686 -0.1175,-0.0921 -0.0484,-0.0236 -0.1072,-0.0353 -0.1763,-0.0353 -0.1216,0 -0.2171,0.0346 -0.2862,0.1045 -0.0692,0.0699 -0.1147,0.1711 -0.1368,0.3028l0.8004 0zm-0.8088 0.374c0.0209,0.1802 0.0754,0.3105 0.1639,0.3916 0.0885,0.081 0.2025,0.122 0.3421,0.122 0.0747,0 0.139,-0.0091 0.1929,-0.0271 0.054,-0.0181 0.1024,-0.0381 0.1445,-0.0603 0.0422,-0.0222 0.0808,-0.0422 0.1161,-0.0602 0.0354,-0.018 0.0719,-0.0271 0.1106,-0.0271 0.0513,0 0.0899,0.0188 0.1162,0.0561l0.1867 0.2307c-0.0664,0.0762 -0.1377,0.138 -0.2144,0.1858 -0.0767,0.0478 -0.1556,0.0852 -0.2365,0.1122 -0.0807,0.0269 -0.1616,0.0457 -0.2426,0.0562 -0.0808,0.0102 -0.1583,0.0159 -0.2315,0.0159 -0.1506,0 -0.2917,-0.025 -0.4238,-0.0742 -0.1319,-0.0492 -0.2474,-0.1219 -0.3463,-0.2189 -0.0989,-0.0969 -0.1769,-0.2176 -0.2344,-0.3617 -0.0573,-0.1441 -0.0863,-0.3118 -0.0863,-0.503 0.0001,-0.1442 0.0249,-0.2806 0.074,-0.4095 0.049,-0.1289 0.1195,-0.2418 0.2114,-0.3388 0.092,-0.0969 0.2033,-0.1739 0.3339,-0.2307 0.1307,-0.0568 0.2779,-0.0852 0.4425,-0.0852 0.1424,0 0.273,0.0222 0.3912,0.0665 0.1182,0.0443 0.2198,0.1088 0.3049,0.1933 0.0851,0.0845 0.1514,0.1878 0.199,0.3104 0.0478,0.1226 0.0712,0.2619 0.0712,0.4171 0,0.0484 -0.0021,0.088 -0.0062,0.1185 -0.004,0.0304 -0.0118,0.0547 -0.0228,0.0727 -0.0111,0.0181 -0.0255,0.0305 -0.0443,0.0375 -0.0186,0.0069 -0.0428,0.0103 -0.0718,0.0103l-1.2402 -0.0001zm2.4029 -1.193l0 2.1596c0,0.101 -0.0126,0.1962 -0.0381,0.2855 -0.0256,0.0893 -0.0678,0.1677 -0.1265,0.2349 -0.0586,0.0672 -0.1362,0.1206 -0.2322,0.1593 -0.096,0.0388 -0.2157,0.0582 -0.3581,0.0582 -0.0525,-0.0001 -0.1011,-0.0034 -0.146,-0.0096 -0.0449,-0.0063 -0.0919,-0.0153 -0.1403,-0.0278l0.0208 -0.3388c0.0018,-0.0291 0.0125,-0.0506 0.0291,-0.0644 0.0166,-0.0138 0.0497,-0.0208 0.0995,-0.0208 0.0498,-0.0001 0.0906,-0.0042 0.1223,-0.0124 0.0318,-0.0084 0.0574,-0.023 0.076,-0.0437 0.0187,-0.0209 0.0319,-0.0492 0.0395,-0.0845 0.0077,-0.0354 0.011,-0.0804 0.011,-0.1358l0.0001 -2.1597 0.6429 0zm0.0664 -0.5902c0,0.0512 -0.0105,0.0991 -0.0312,0.1441 -0.0206,0.045 -0.0492,0.0845 -0.085,0.1184 -0.0359,0.0339 -0.0775,0.0611 -0.1252,0.0811 -0.0477,0.02 -0.0988,0.0305 -0.1527,0.0305 -0.0525,-0.0001 -0.1017,-0.0104 -0.1473,-0.0305 -0.0457,-0.0201 -0.0858,-0.0471 -0.121,-0.0811 -0.035,-0.0339 -0.0629,-0.0735 -0.0829,-0.1184 -0.02,-0.045 -0.0304,-0.0929 -0.0304,-0.1441 0.0001,-0.0527 0.0104,-0.1019 0.0304,-0.1476 0.0201,-0.0457 0.0477,-0.086 0.0829,-0.1206 0.0352,-0.0346 0.0753,-0.0617 0.121,-0.0811 0.0457,-0.0193 0.0947,-0.029 0.1473,-0.029 0.054,-0.0001 0.1051,0.0097 0.1527,0.029 0.0477,0.0194 0.0893,0.0465 0.1252,0.0811 0.036,0.0345 0.0642,0.0749 0.085,0.1206 0.0208,0.0457 0.0311,0.0949 0.0312,0.1476zm-9.312 5.7963c0.0711,0 0.1346,-0.0108 0.1901,-0.0312 0.0554,-0.0205 0.1022,-0.049 0.1401,-0.0858 0.0378,-0.0368 0.0669,-0.081 0.0867,-0.132 0.0199,-0.0512 0.03,-0.1081 0.03,-0.1705 0.0001,-0.0626 -0.01,-0.1198 -0.0306,-0.1716 -0.0204,-0.0519 -0.0502,-0.096 -0.0884,-0.1327 -0.0381,-0.0367 -0.085,-0.0652 -0.1401,-0.0853 -0.055,-0.02 -0.1178,-0.0301 -0.1879,-0.0301 -0.07,-0.0001 -0.1323,0.0101 -0.1873,0.0301 -0.055,0.02 -0.1018,0.0485 -0.1401,0.0853 -0.0383,0.0367 -0.0679,0.0808 -0.0879,0.1327 -0.02,0.0518 -0.03,0.1091 -0.03,0.1716 0.0001,0.0623 0.0102,0.1193 0.03,0.1705 0.0199,0.051 0.0495,0.0953 0.0879,0.132 0.0384,0.0368 0.0853,0.0654 0.1401,0.0858 0.0548,0.0203 0.1173,0.0313 0.1874,0.0312zm0.6204 0.8476c0,-0.0523 -0.0135,-0.0949 -0.0406,-0.1265 -0.027,-0.0317 -0.0641,-0.0565 -0.1096,-0.0741 -0.0453,-0.0177 -0.0978,-0.0307 -0.1573,-0.0379 -0.0594,-0.0072 -0.1217,-0.0122 -0.1868,-0.0156 -0.065,-0.0034 -0.1306,-0.0068 -0.1962,-0.0101 -0.0655,-0.0033 -0.1274,-0.0099 -0.1852,-0.0199 -0.0422,0.0166 -0.0811,0.0357 -0.1167,0.0574 -0.0355,0.0216 -0.0664,0.0469 -0.0918,0.0745 -0.0254,0.0277 -0.0457,0.0583 -0.06,0.0909 -0.0143,0.0327 -0.0217,0.0686 -0.0217,0.1064 0.0001,0.049 0.0129,0.0942 0.0379,0.136 0.025,0.0416 0.0616,0.078 0.11,0.1087 0.0484,0.0305 0.1075,0.0553 0.1773,0.0729 0.0701,0.0177 0.1507,0.0268 0.2419,0.0268 0.0846,0 0.1637,-0.0096 0.2363,-0.0284 0.0728,-0.0187 0.1364,-0.0459 0.1901,-0.0803 0.0538,-0.0344 0.0964,-0.0759 0.1269,-0.1237 0.0303,-0.0477 0.0455,-0.1003 0.0455,-0.1571zm0.1735 -1.7018l0 0.0551c0,0.0241 -0.0156,0.043 -0.0468,0.0452l-0.2535 0.0183c0.0312,0.0424 0.0553,0.09 0.0717,0.1422 0.0165,0.0521 0.0251,0.1092 0.0251,0.1705 0,0.0802 -0.014,0.1527 -0.0423,0.2179 -0.0283,0.0651 -0.0686,0.1211 -0.1201,0.1671 -0.0515,0.0461 -0.1141,0.0827 -0.1868,0.1082 -0.0725,0.0255 -0.1534,0.0384 -0.2413,0.0384 -0.0945,0 -0.1807,-0.0144 -0.2585,-0.0434 -0.0466,0.0266 -0.0836,0.058 -0.1107,0.0942 -0.027,0.0359 -0.0411,0.0724 -0.0411,0.1081 0,0.0478 0.0174,0.0848 0.0512,0.1102 0.0339,0.0255 0.0786,0.0443 0.1334,0.0558 0.0549,0.0114 0.1179,0.0194 0.1885,0.0228 0.0706,0.0033 0.1425,0.0069 0.2157,0.0106 0.0732,0.0036 0.1457,0.0111 0.2163,0.0212 0.0706,0.0101 0.1336,0.0275 0.1884,0.0523 0.055,0.0249 0.0997,0.0604 0.1335,0.1054 0.0337,0.045 0.0506,0.1053 0.0506,0.18 0.0001,0.0691 -0.0174,0.1356 -0.0517,0.199 -0.0343,0.0633 -0.0842,0.1199 -0.149,0.1687 -0.0649,0.0488 -0.1441,0.0881 -0.2363,0.1176 -0.0923,0.0295 -0.1957,0.0446 -0.3103,0.0446 -0.1166,0 -0.219,-0.0122 -0.3069,-0.0362 -0.0878,-0.024 -0.1613,-0.0565 -0.2206,-0.097 -0.0592,-0.0406 -0.1048,-0.0877 -0.1346,-0.141 -0.0298,-0.0534 -0.0451,-0.1102 -0.0451,-0.1705 0,-0.0881 0.0289,-0.1638 0.0867,-0.2268 0.0579,-0.063 0.1368,-0.112 0.2369,-0.1477 -0.0556,-0.0189 -0.1001,-0.0468 -0.134,-0.083 -0.0337,-0.0363 -0.0511,-0.0852 -0.0511,-0.1477 0,-0.0233 0.0046,-0.0481 0.0133,-0.0735 0.0087,-0.0255 0.0223,-0.0512 0.0401,-0.0763 0.0178,-0.0252 0.0396,-0.0487 0.065,-0.0709 0.0254,-0.0221 0.0545,-0.0423 0.0868,-0.0601 -0.079,-0.0457 -0.1403,-0.1066 -0.1841,-0.1822 -0.0438,-0.0756 -0.0662,-0.1644 -0.0662,-0.2658 0.0001,-0.0802 0.0145,-0.1532 0.0429,-0.2184 0.0283,-0.0652 0.0686,-0.1211 0.1206,-0.1678 0.0522,-0.0465 0.1153,-0.0831 0.1879,-0.1086 0.0727,-0.0254 0.1535,-0.0385 0.2424,-0.0385 0.0734,0 0.1415,0.0091 0.2029,0.0268 0.0616,0.0175 0.1169,0.0429 0.1657,0.0752l0.4254 0zm1.1526 0.3277c0.0255,-0.0681 0.055,-0.1289 0.0877,-0.1818 0.0327,-0.0529 0.0706,-0.0974 0.1134,-0.1342 0.0428,-0.0368 0.0907,-0.0654 0.1435,-0.0847 0.0526,-0.0194 0.1112,-0.029 0.1756,-0.029 0.0345,0 0.0685,0.003 0.1018,0.009 0.0331,0.0059 0.0628,0.0173 0.0884,0.0328l-0.0133 0.1103c-0.0022,0.0182 -0.0162,0.0268 -0.0318,0.0268 -0.0133,-0.0001 -0.0334,-0.0041 -0.0605,-0.0117 -0.0271,-0.0078 -0.0635,-0.0117 -0.1079,-0.0117 -0.0644,-0.0001 -0.1212,0.0094 -0.1707,0.029 -0.0494,0.0195 -0.0941,0.0491 -0.1335,0.088 -0.0392,0.0388 -0.074,0.0871 -0.1033,0.1444 -0.0293,0.0571 -0.0568,0.1236 -0.0812,0.1983l0 1.0765 -0.16 0 0 -1.6634 0.0849 0c0.0189,0 0.0324,0.0041 0.0401,0.0118 0.0076,0.0077 0.0144,0.0213 0.015,0.0402l0.0118 0.3494zm2.595 0.458c-0.1578,0.0054 -0.2936,0.0178 -0.4075,0.0373 -0.1139,0.0194 -0.208,0.0465 -0.2818,0.0798 -0.0739,0.0333 -0.1292,0.073 -0.1646,0.1191 -0.0355,0.0461 -0.0534,0.0993 -0.0534,0.1584 0.0001,0.0555 0.0095,0.1037 0.0278,0.1442 0.0182,0.0407 0.043,0.0742 0.0734,0.1003 0.0304,0.026 0.0657,0.0459 0.1056,0.0581 0.0399,0.0121 0.0818,0.0183 0.1252,0.0183 0.0645,-0.0001 0.124,-0.0074 0.1778,-0.0212 0.0538,-0.0139 0.1041,-0.0335 0.1502,-0.0585 0.046,-0.0249 0.089,-0.0548 0.1289,-0.0892 0.04,-0.0345 0.0796,-0.0719 0.1184,-0.1119l0 -0.4347zm-0.9757 -0.6235c0.0868,-0.087 0.1781,-0.1528 0.2736,-0.1973 0.0955,-0.0445 0.204,-0.0669 0.3252,-0.0669 0.0889,0 0.167,0.014 0.2335,0.0423 0.0666,0.0284 0.1224,0.0693 0.1662,0.1221 0.0438,0.0527 0.0769,0.1171 0.0991,0.1922 0.0222,0.0751 0.0332,0.1597 0.0332,0.2519l0 1.0832 -0.0633 0c-0.0331,0 -0.0583,-0.0147 -0.0618,-0.0467l-0.0232 -0.214c-0.0456,0.0445 -0.0907,0.0847 -0.1357,0.1204 -0.0451,0.0356 -0.0924,0.0658 -0.1412,0.0903 -0.0488,0.0243 -0.102,0.0435 -0.1585,0.0567 -0.0566,0.0133 -0.119,0.0202 -0.1868,0.0202 -0.0568,-0.0001 -0.1119,-0.0085 -0.1651,-0.0251 -0.0533,-0.0166 -0.1008,-0.0425 -0.1424,-0.0769 -0.0416,-0.0345 -0.0751,-0.0791 -0.1001,-0.1331 -0.0249,-0.0541 -0.0377,-0.1188 -0.0377,-0.1945 0.0001,-0.0703 0.02,-0.1356 0.06,-0.1957 0.0401,-0.0601 0.1029,-0.1126 0.1885,-0.1571 0.0855,-0.0446 0.1958,-0.0804 0.3297,-0.107 0.1339,-0.0267 0.2946,-0.0423 0.4825,-0.0468l0 -0.1739c0,-0.1538 -0.0328,-0.2725 -0.0989,-0.3555 -0.0662,-0.0831 -0.1646,-0.1243 -0.2947,-0.1243 -0.08,-0.0001 -0.1479,0.0114 -0.2041,0.0335 -0.0558,0.0221 -0.1041,0.0469 -0.1428,0.0735 -0.0387,0.0267 -0.0706,0.0514 -0.095,0.0736 -0.0245,0.0222 -0.0452,0.0334 -0.0618,0.0334 -0.0122,0 -0.0223,-0.0028 -0.0301,-0.0083 -0.0077,-0.0054 -0.0147,-0.0127 -0.02,-0.0218l-0.0283 -0.0484zm4.4934 -0.2359l-0.5538 1.6634 -0.1185 0c-0.0186,0 -0.0306,-0.0119 -0.0383,-0.035l-0.4536 -1.3509c-0.0056,-0.0166 -0.0108,-0.0334 -0.0151,-0.05 -0.0042,-0.0166 -0.0084,-0.0334 -0.0117,-0.0502 -0.0054,0.0335 -0.0138,0.0672 -0.025,0.1003l-0.4603 1.3507c-0.0078,0.0228 -0.0203,0.0352 -0.0401,0.0352l-0.1134 -0.0001 -0.5536 -1.6634 0.12 0c0.0156,0 0.0284,0.004 0.0383,0.0124 0.0101,0.0083 0.0168,0.018 0.02,0.0279l0.4187 1.3122c0.008,0.0251 0.0129,0.0503 0.0184,0.0742 0.0055,0.0237 0.01,0.0479 0.0133,0.0713 0.0067,-0.0235 0.0133,-0.0474 0.02,-0.0713 0.0066,-0.024 0.0147,-0.0484 0.0233,-0.0742l0.4437 -1.324c0.0082,-0.0245 0.0234,-0.0367 0.0467,-0.0367l0.065 -0.0001c0.0245,0 0.0403,0.0126 0.0484,0.0369l0.4404 1.3239c0.0083,0.0253 0.015,0.0504 0.0216,0.0737 0.0067,0.0231 0.0128,0.0468 0.0184,0.0701 0.0044,-0.0234 0.0095,-0.0468 0.0145,-0.0701 0.0049,-0.0234 0.0106,-0.0481 0.0188,-0.0737l0.4222 -1.3123c0.004,-0.0124 0.0117,-0.0223 0.0215,-0.0295 0.0099,-0.0071 0.0216,-0.0106 0.035,-0.0106l0.1152 -0.0001zm1.1842 0l0 1.6634 -0.1584 0 0 -1.6634 0.1584 0zm0.0685 -0.5734c0,0.0202 -0.0041,0.0388 -0.0124,0.0559 -0.0082,0.0171 -0.0196,0.033 -0.0328,0.0463 -0.0131,0.0131 -0.0289,0.0239 -0.0467,0.0317 -0.0178,0.0076 -0.0367,0.0117 -0.0567,0.0117 -0.02,0 -0.039,-0.0041 -0.0567,-0.0117 -0.0176,-0.0076 -0.0335,-0.0185 -0.0467,-0.0317 -0.0131,-0.0134 -0.024,-0.0293 -0.0316,-0.0463 -0.0076,-0.0173 -0.0117,-0.0357 -0.0117,-0.0558 0,-0.0201 0.004,-0.0397 0.0117,-0.0579 0.0076,-0.0183 0.0183,-0.034 0.0316,-0.0474 0.0134,-0.0133 0.0289,-0.024 0.0467,-0.0318 0.0178,-0.0077 0.0367,-0.0117 0.0567,-0.0117 0.0201,-0.0001 0.0391,0.0042 0.0567,0.0117 0.0178,0.0077 0.0335,0.0186 0.0467,0.0318 0.0133,0.0134 0.0245,0.0291 0.0328,0.0474 0.0083,0.0184 0.0123,0.0379 0.0124,0.0578zm-9.3545 5.8297c-0.1124,0 -0.1999,-0.0313 -0.2625,-0.0935 -0.0626,-0.0623 -0.0945,-0.1588 -0.0945,-0.2892l0 -1.137 -0.2385 0c-0.0119,0 -0.0225,-0.0033 -0.0301,-0.0099 -0.0075,-0.0065 -0.0116,-0.0161 -0.0116,-0.0284l0 -0.0619 0.2835 -0.02 0.0401 -0.5952c0.0006,-0.0102 0.0069,-0.019 0.0133,-0.0267 0.0065,-0.0077 0.0161,-0.0116 0.0283,-0.0116l0.0752 -0.0001 0 0.6352 0.5237 0 0 0.1186 -0.5237 0 0 1.1285c0,0.0454 0.0062,0.085 0.0177,0.1176 0.0116,0.0326 0.028,0.0604 0.0483,0.0814 0.0204,0.021 0.0446,0.037 0.0724,0.0469 0.0277,0.0097 0.0578,0.015 0.09,0.015 0.0402,0 0.0746,-0.0064 0.1034,-0.0179 0.0287,-0.0116 0.0541,-0.0247 0.075,-0.0384 0.021,-0.0139 0.0387,-0.0269 0.0518,-0.0384 0.0132,-0.0116 0.0239,-0.0173 0.0317,-0.0173 0.0089,0 0.0194,0.0049 0.0267,0.0167l0.0434 0.0702c-0.0423,0.0468 -0.0957,0.0841 -0.1608,0.1125 -0.065,0.0284 -0.1328,0.043 -0.2028,0.0429zm2.7444 -0.8308c-0.1578,0.0055 -0.2937,0.018 -0.4075,0.0373 -0.1139,0.0194 -0.2079,0.0463 -0.2819,0.0797 -0.074,0.0334 -0.1291,0.0731 -0.1646,0.1193 -0.0355,0.0462 -0.0534,0.0992 -0.0534,0.1583 0.0001,0.0556 0.0096,0.1037 0.0278,0.1442 0.0183,0.0406 0.043,0.0742 0.0734,0.1003 0.0306,0.0261 0.0657,0.0459 0.1056,0.0581 0.0401,0.0122 0.0818,0.0183 0.1252,0.0183 0.0645,0 0.124,-0.0073 0.1778,-0.0212 0.0539,-0.014 0.1041,-0.0335 0.1502,-0.0585 0.0461,-0.025 0.089,-0.0547 0.129,-0.0891 0.0399,-0.0345 0.0795,-0.0719 0.1184,-0.112l0 -0.4347zm-0.9757 -0.6236c0.0867,-0.0869 0.178,-0.1526 0.2736,-0.1972 0.0955,-0.0445 0.204,-0.0668 0.3252,-0.0668 0.089,0 0.1668,0.0139 0.2334,0.0423 0.0667,0.0283 0.1224,0.0692 0.1663,0.122 0.0438,0.0528 0.0768,0.1171 0.099,0.1923 0.0222,0.0751 0.0333,0.1595 0.0333,0.2519l0.0001 1.0832 -0.0634 0c-0.0332,0 -0.0583,-0.0148 -0.0618,-0.0468l-0.0232 -0.2141c-0.0457,0.0447 -0.0908,0.0849 -0.1357,0.1205 -0.045,0.0356 -0.0924,0.0658 -0.1413,0.0903 -0.0488,0.0244 -0.1018,0.0436 -0.1585,0.0568 -0.0566,0.0133 -0.119,0.0201 -0.1867,0.0201 -0.0568,-0.0001 -0.1119,-0.0085 -0.1651,-0.0251 -0.0533,-0.0167 -0.1008,-0.0424 -0.1424,-0.0769 -0.0416,-0.0346 -0.0751,-0.0792 -0.1001,-0.1331 -0.0249,-0.0541 -0.0378,-0.1188 -0.0378,-0.1946 0.0001,-0.0702 0.0201,-0.1355 0.0601,-0.1955 0.04,-0.0602 0.1029,-0.1127 0.1884,-0.1572 0.0856,-0.0444 0.1958,-0.0804 0.3297,-0.107 0.134,-0.0267 0.2947,-0.0423 0.4826,-0.0468l0 -0.1738c0,-0.1539 -0.0329,-0.2727 -0.099,-0.3556 -0.0661,-0.083 -0.1645,-0.1242 -0.2947,-0.1242 -0.0799,0 -0.1479,0.0112 -0.204,0.0335 -0.056,0.0221 -0.1041,0.0468 -0.1429,0.0734 -0.0387,0.0266 -0.0706,0.0514 -0.095,0.0736 -0.0244,0.0223 -0.0451,0.0334 -0.0617,0.0334 -0.0121,0 -0.0223,-0.0028 -0.0301,-0.0083 -0.0076,-0.0055 -0.0147,-0.0127 -0.02,-0.0218l-0.0283 -0.0485zm3.9095 -0.0133c-0.0044,0.0062 -0.0106,0.0101 -0.0156,0.0139 -0.0048,0.0039 -0.0122,0.0061 -0.021,0.0061 -0.0112,-0.0001 -0.0262,-0.0079 -0.0451,-0.0228 -0.0187,-0.0151 -0.0446,-0.0313 -0.0767,-0.0491 -0.0322,-0.0177 -0.0724,-0.0345 -0.1207,-0.0495 -0.0484,-0.0151 -0.1073,-0.0223 -0.1762,-0.0223 -0.0955,0 -0.1803,0.0168 -0.2541,0.0507 -0.0738,0.0338 -0.1369,0.0831 -0.1879,0.1466 -0.051,0.0633 -0.0895,0.1404 -0.1156,0.2307 -0.0262,0.0902 -0.0395,0.1917 -0.0395,0.3042 0,0.117 0.0139,0.2207 0.0411,0.3109 0.0273,0.0902 0.0657,0.1662 0.1157,0.2279 0.05,0.0619 0.1107,0.1093 0.1817,0.1416 0.0713,0.0322 0.1501,0.0485 0.2369,0.0485 0.0801,0 0.1474,-0.0095 0.2013,-0.0284 0.054,-0.019 0.0984,-0.0397 0.1334,-0.0619 0.0351,-0.0222 0.0623,-0.0429 0.0823,-0.0618 0.02,-0.0191 0.0367,-0.0285 0.05,-0.0285 0.0135,0 0.0246,0.0056 0.0334,0.0168l0.0417 0.0533c-0.0256,0.0336 -0.0579,0.0648 -0.0968,0.0937 -0.0388,0.029 -0.0829,0.0542 -0.1318,0.0753 -0.0487,0.021 -0.1017,0.0374 -0.1589,0.0491 -0.0572,0.0114 -0.1174,0.0178 -0.1796,0.0178 -0.1055,0 -0.202,-0.0196 -0.2891,-0.0579 -0.0873,-0.0385 -0.1624,-0.0944 -0.2251,-0.1673 -0.0628,-0.0731 -0.1119,-0.1622 -0.1469,-0.268 -0.0349,-0.1058 -0.0528,-0.2263 -0.0528,-0.3611 0.0001,-0.1272 0.0168,-0.243 0.0501,-0.3477 0.0332,-0.1047 0.0823,-0.195 0.1467,-0.2708 0.0645,-0.0758 0.1435,-0.135 0.2363,-0.1767 0.0928,-0.0417 0.199,-0.0624 0.3191,-0.0624 0.1079,0 0.2036,0.0174 0.287,0.0519 0.0833,0.0344 0.1562,0.0812 0.2185,0.1404l-0.0418 0.0568zm1.7663 -0.2223l0 1.8757c0,0.0576 -0.0084,0.1114 -0.0251,0.1605 -0.0166,0.0488 -0.0411,0.0913 -0.0739,0.1275 -0.0327,0.0362 -0.0739,0.0647 -0.1234,0.0853 -0.0494,0.0206 -0.1079,0.0312 -0.1746,0.0312 -0.0322,0 -0.0612,-0.0029 -0.0868,-0.0084 -0.0254,-0.0055 -0.0505,-0.0145 -0.075,-0.0267l0.0083 -0.0803c0.0012,-0.0105 0.0079,-0.0162 0.0134,-0.0178 0.0055,-0.0016 0.0134,-0.0016 0.0228,0 0.0095,0.0015 0.0212,0.004 0.0356,0.0068 0.0145,0.0027 0.0328,0.0044 0.055,0.0044 0.0901,0 0.1568,-0.0247 0.2002,-0.0736 0.0433,-0.049 0.065,-0.1187 0.065,-0.2089l0.0001 -1.8757 0.1584 0zm0.0685 -0.5734c0,0.0199 -0.0041,0.0384 -0.0124,0.0557 -0.0083,0.0173 -0.0195,0.0329 -0.0334,0.0463 -0.0137,0.0133 -0.0301,0.024 -0.0478,0.0317 -0.0177,0.0077 -0.0366,0.0117 -0.0567,0.0117 -0.02,-0.0001 -0.0389,-0.004 -0.0567,-0.0117 -0.0177,-0.0077 -0.0334,-0.0184 -0.0467,-0.0317 -0.0131,-0.0134 -0.0239,-0.029 -0.0317,-0.0463 -0.0077,-0.0173 -0.0117,-0.0357 -0.0117,-0.0557 0,-0.0203 0.004,-0.0397 0.0117,-0.0579 0.0079,-0.0184 0.0184,-0.0341 0.0317,-0.0474 0.0135,-0.0135 0.029,-0.0241 0.0467,-0.0318 0.0179,-0.0079 0.0367,-0.0117 0.0567,-0.0117 0.0201,-0.0001 0.039,0.0039 0.0567,0.0117 0.0179,0.0078 0.0341,0.0185 0.0478,0.0318 0.0139,0.0132 0.0252,0.029 0.0334,0.0474 0.0082,0.0182 0.0123,0.0377 0.0124,0.0579zm1.773 0.5734l0 1.6633 -0.1583 0 0 -1.6633 0.1583 0zm0.0686 -0.5734c0,0.0199 -0.0041,0.0384 -0.0124,0.0557 -0.0083,0.0173 -0.0196,0.033 -0.0328,0.0463 -0.0132,0.0132 -0.029,0.0239 -0.0467,0.0317 -0.0178,0.0077 -0.0368,0.0117 -0.0567,0.0117 -0.0199,-0.0001 -0.039,-0.004 -0.0567,-0.0117 -0.0178,-0.0078 -0.0335,-0.0185 -0.0467,-0.0317 -0.0131,-0.0133 -0.024,-0.0292 -0.0317,-0.0463 -0.0075,-0.0172 -0.0116,-0.0357 -0.0116,-0.0557 0.0001,-0.0203 0.004,-0.0398 0.0116,-0.0579 0.0077,-0.0183 0.0183,-0.0341 0.0317,-0.0474 0.0134,-0.0135 0.029,-0.0242 0.0467,-0.0318 0.0177,-0.0078 0.0367,-0.0117 0.0567,-0.0117 0.02,-0.0001 0.0391,0.004 0.0567,0.0117 0.0178,0.0076 0.0335,0.0185 0.0467,0.0318 0.0133,0.0133 0.0246,0.0291 0.0328,0.0474 0.0082,0.0181 0.0123,0.0377 0.0124,0.0579z"/>
  </g>
 </g>
</svg>
